<svg id="info" xmlns="http://www.w3.org/2000/svg" width="18" height="17" viewBox="0 0 16.96 17.36"><defs><style>.cls-1{fill:#022851;}.cls-2{fill:#ffbf00;stroke:#fff;stroke-miterlimit:10;stroke-width:1px;}</style></defs><path class="cls-1" d="M9.11,1.87a7.95,7.95,0,1,1-7.95,8,8,8,0,0,1,8-7.95" transform="translate(-0.1 -0.41)"/><path class="cls-2" d="M8.18.91A7.58,7.58,0,1,1,.6,8.48,7.57,7.57,0,0,1,8.18.91" transform="translate(-0.1 -0.41)"/><rect class="cls-1" x="6.55" y="7.49" width="3.06" height="5.61"/><path class="cls-1" d="M8.18,3.3A1.53,1.53,0,1,0,9.71,4.83,1.53,1.53,0,0,0,8.18,3.3" transform="translate(-0.1 -0.41)"/></svg>
