<svg xmlns="http://www.w3.org/2000/svg" width="74.675" height="53.655" viewBox="0 0 74.675 53.655">
  <g id="Group_1964" data-name="Group 1964" transform="translate(0 0)">
    <g id="Group_1907" data-name="Group 1907" transform="translate(0 24.711)">
      <g id="Group_1894" data-name="Group 1894" transform="translate(6.004)">
        <path id="Path_2430" data-name="Path 2430" d="M552.222,2661.761a.766.766,0,0,1-.767-.766v-21.435a.767.767,0,1,1,1.533,0V2661A.766.766,0,0,1,552.222,2661.761Z" transform="translate(-551.455 -2638.794)" fill="#fff"/>
      </g>
      <g id="Group_1900" data-name="Group 1900" transform="translate(0 2.839)">
        <g id="Group_1895" data-name="Group 1895" transform="translate(2.304)">
          <path id="Path_2431" data-name="Path 2431" d="M547.994,2644.81a.767.767,0,0,1-.513-1.336l1.374-1.238a.767.767,0,0,1,1.026,1.139l-1.374,1.238A.765.765,0,0,1,547.994,2644.81Z" transform="translate(-547.227 -2642.038)" fill="#fff"/>
        </g>
        <g id="Group_1896" data-name="Group 1896" transform="translate(1.611 3.156)">
          <path id="Path_2432" data-name="Path 2432" d="M547.2,2649.04a.767.767,0,0,1-.514-1.336l2.067-1.862a.767.767,0,1,1,1.026,1.139l-2.067,1.862A.765.765,0,0,1,547.2,2649.04Z" transform="translate(-546.436 -2645.645)" fill="#fff"/>
        </g>
        <g id="Group_1897" data-name="Group 1897" transform="translate(1.026 6.36)">
          <path id="Path_2433" data-name="Path 2433" d="M546.534,2653.229a.766.766,0,0,1-.514-1.336l2.652-2.39a.767.767,0,1,1,1.026,1.139l-2.652,2.389A.764.764,0,0,1,546.534,2653.229Z" transform="translate(-545.767 -2649.306)" fill="#fff"/>
        </g>
        <g id="Group_1898" data-name="Group 1898" transform="translate(0.493 9.587)">
          <path id="Path_2434" data-name="Path 2434" d="M545.925,2657.4a.767.767,0,0,1-.514-1.336l3.184-2.869a.767.767,0,1,1,1.026,1.139l-3.184,2.869A.765.765,0,0,1,545.925,2657.4Z" transform="translate(-545.158 -2652.994)" fill="#fff"/>
        </g>
        <g id="Group_1899" data-name="Group 1899" transform="translate(0 12.833)">
          <path id="Path_2435" data-name="Path 2435" d="M545.361,2661.55a.767.767,0,0,1-.514-1.336l3.678-3.314a.767.767,0,1,1,1.026,1.139l-3.678,3.313A.765.765,0,0,1,545.361,2661.55Z" transform="translate(-544.594 -2656.703)" fill="#fff"/>
        </g>
      </g>
      <g id="Group_1906" data-name="Group 1906" transform="translate(8.32 2.82)">
        <g id="Group_1901" data-name="Group 1901">
          <path id="Path_2436" data-name="Path 2436" d="M556.243,2644.789a.761.761,0,0,1-.513-.2l-1.375-1.238a.767.767,0,1,1,1.026-1.139l1.375,1.238a.767.767,0,0,1-.514,1.336Z" transform="translate(-554.102 -2642.017)" fill="#fff"/>
        </g>
        <g id="Group_1902" data-name="Group 1902" transform="translate(0 3.155)">
          <path id="Path_2437" data-name="Path 2437" d="M556.936,2649.018a.763.763,0,0,1-.513-.2l-2.068-1.863a.767.767,0,1,1,1.026-1.139l2.068,1.862a.767.767,0,0,1-.514,1.336Z" transform="translate(-554.102 -2645.623)" fill="#fff"/>
        </g>
        <g id="Group_1903" data-name="Group 1903" transform="translate(0 6.359)">
          <path id="Path_2438" data-name="Path 2438" d="M557.522,2653.207a.762.762,0,0,1-.513-.2l-2.653-2.39a.767.767,0,1,1,1.026-1.139l2.653,2.39a.767.767,0,0,1-.514,1.336Z" transform="translate(-554.102 -2649.284)" fill="#fff"/>
        </g>
        <g id="Group_1904" data-name="Group 1904" transform="translate(0 9.587)">
          <path id="Path_2439" data-name="Path 2439" d="M558.054,2657.375a.766.766,0,0,1-.514-.2l-3.184-2.868a.767.767,0,1,1,1.026-1.139l3.184,2.868a.767.767,0,0,1-.513,1.336Z" transform="translate(-554.102 -2652.972)" fill="#fff"/>
        </g>
        <g id="Group_1905" data-name="Group 1905" transform="translate(0 12.832)">
          <path id="Path_2440" data-name="Path 2440" d="M558.547,2661.528a.762.762,0,0,1-.513-.2l-3.679-3.314a.767.767,0,1,1,1.026-1.139l3.679,3.314a.767.767,0,0,1-.514,1.336Z" transform="translate(-554.102 -2656.681)" fill="#fff"/>
        </g>
      </g>
    </g>
    <g id="Group_1921" data-name="Group 1921" transform="translate(16.096 27.699)">
      <g id="Group_1908" data-name="Group 1908" transform="translate(6.003)">
        <path id="Path_2441" data-name="Path 2441" d="M570.615,2665.177a.767.767,0,0,1-.767-.767v-21.435a.767.767,0,1,1,1.533,0v21.435A.767.767,0,0,1,570.615,2665.177Z" transform="translate(-569.848 -2642.208)" fill="#fff"/>
      </g>
      <g id="Group_1914" data-name="Group 1914" transform="translate(0 2.84)">
        <g id="Group_1909" data-name="Group 1909" transform="translate(2.304)">
          <path id="Path_2442" data-name="Path 2442" d="M566.388,2648.225a.766.766,0,0,1-.514-1.336l1.374-1.237a.766.766,0,1,1,1.026,1.138l-1.374,1.238A.764.764,0,0,1,566.388,2648.225Z" transform="translate(-565.621 -2645.454)" fill="#fff"/>
        </g>
        <g id="Group_1910" data-name="Group 1910" transform="translate(1.611 3.155)">
          <path id="Path_2443" data-name="Path 2443" d="M565.6,2652.454a.767.767,0,0,1-.514-1.336l2.067-1.861a.766.766,0,1,1,1.026,1.138l-2.067,1.862A.764.764,0,0,1,565.6,2652.454Z" transform="translate(-564.829 -2649.059)" fill="#fff"/>
        </g>
        <g id="Group_1911" data-name="Group 1911" transform="translate(1.026 6.359)">
          <path id="Path_2444" data-name="Path 2444" d="M564.927,2656.643a.767.767,0,0,1-.514-1.336l2.652-2.389a.767.767,0,1,1,1.026,1.139l-2.652,2.39A.764.764,0,0,1,564.927,2656.643Z" transform="translate(-564.16 -2652.72)" fill="#fff"/>
        </g>
        <g id="Group_1912" data-name="Group 1912" transform="translate(0.494 9.587)">
          <path id="Path_2445" data-name="Path 2445" d="M564.318,2660.811a.767.767,0,0,1-.514-1.336l3.184-2.869a.767.767,0,1,1,1.026,1.139l-3.184,2.869A.763.763,0,0,1,564.318,2660.811Z" transform="translate(-563.552 -2656.409)" fill="#fff"/>
        </g>
        <g id="Group_1913" data-name="Group 1913" transform="translate(0 12.832)">
          <path id="Path_2446" data-name="Path 2446" d="M563.755,2664.964a.767.767,0,0,1-.514-1.336l3.678-3.313a.766.766,0,1,1,1.026,1.138l-3.678,3.314A.763.763,0,0,1,563.755,2664.964Z" transform="translate(-562.988 -2660.117)" fill="#fff"/>
        </g>
      </g>
      <g id="Group_1920" data-name="Group 1920" transform="translate(8.32 2.821)">
        <g id="Group_1915" data-name="Group 1915">
          <path id="Path_2447" data-name="Path 2447" d="M574.636,2648.2a.765.765,0,0,1-.513-.2l-1.375-1.238a.767.767,0,0,1,1.027-1.139l1.375,1.238a.767.767,0,0,1-.514,1.336Z" transform="translate(-572.496 -2645.431)" fill="#fff"/>
        </g>
        <g id="Group_1916" data-name="Group 1916" transform="translate(0 3.155)">
          <path id="Path_2448" data-name="Path 2448" d="M575.33,2652.433a.762.762,0,0,1-.513-.2l-2.068-1.861a.767.767,0,0,1,1.027-1.139l2.068,1.862a.767.767,0,0,1-.514,1.336Z" transform="translate(-572.496 -2649.037)" fill="#fff"/>
        </g>
        <g id="Group_1917" data-name="Group 1917" transform="translate(0 6.359)">
          <path id="Path_2449" data-name="Path 2449" d="M575.915,2656.622a.763.763,0,0,1-.513-.2l-2.653-2.389a.767.767,0,1,1,1.027-1.139l2.653,2.39a.767.767,0,0,1-.514,1.336Z" transform="translate(-572.496 -2652.698)" fill="#fff"/>
        </g>
        <g id="Group_1918" data-name="Group 1918" transform="translate(0 9.587)">
          <path id="Path_2450" data-name="Path 2450" d="M576.447,2660.79a.763.763,0,0,1-.513-.2l-3.185-2.868a.767.767,0,0,1,1.027-1.139l3.185,2.869a.767.767,0,0,1-.514,1.336Z" transform="translate(-572.496 -2656.387)" fill="#fff"/>
        </g>
        <g id="Group_1919" data-name="Group 1919" transform="translate(0 12.832)">
          <path id="Path_2451" data-name="Path 2451" d="M576.94,2664.942a.763.763,0,0,1-.513-.2l-3.679-3.313a.767.767,0,1,1,1.027-1.139l3.679,3.313a.767.767,0,0,1-.514,1.336Z" transform="translate(-572.496 -2660.096)" fill="#fff"/>
        </g>
      </g>
    </g>
    <g id="Group_1935" data-name="Group 1935" transform="translate(45.302 30.687)">
      <g id="Group_1922" data-name="Group 1922" transform="translate(6.003)">
        <path id="Path_2452" data-name="Path 2452" d="M603.99,2668.591a.767.767,0,0,1-.767-.767v-21.434a.767.767,0,0,1,1.533,0v21.434A.766.766,0,0,1,603.99,2668.591Z" transform="translate(-603.223 -2645.623)" fill="#fff"/>
      </g>
      <g id="Group_1928" data-name="Group 1928" transform="translate(0 2.839)">
        <g id="Group_1923" data-name="Group 1923" transform="translate(2.304)">
          <path id="Path_2453" data-name="Path 2453" d="M599.763,2651.639a.766.766,0,0,1-.513-1.336l1.375-1.238a.766.766,0,1,1,1.026,1.139l-1.375,1.238A.759.759,0,0,1,599.763,2651.639Z" transform="translate(-598.996 -2648.867)" fill="#fff"/>
        </g>
        <g id="Group_1924" data-name="Group 1924" transform="translate(1.611 3.155)">
          <path id="Path_2454" data-name="Path 2454" d="M598.971,2655.869a.767.767,0,0,1-.514-1.336l2.068-1.862a.766.766,0,0,1,1.026,1.139l-2.067,1.862A.761.761,0,0,1,598.971,2655.869Z" transform="translate(-598.204 -2652.473)" fill="#fff"/>
        </g>
        <g id="Group_1925" data-name="Group 1925" transform="translate(1.026 6.359)">
          <path id="Path_2455" data-name="Path 2455" d="M598.3,2660.058a.766.766,0,0,1-.514-1.336l2.653-2.39a.766.766,0,0,1,1.026,1.139l-2.652,2.389A.764.764,0,0,1,598.3,2660.058Z" transform="translate(-597.535 -2656.135)" fill="#fff"/>
        </g>
        <g id="Group_1926" data-name="Group 1926" transform="translate(0.494 9.587)">
          <path id="Path_2456" data-name="Path 2456" d="M597.694,2664.225a.766.766,0,0,1-.513-1.336l3.185-2.868a.766.766,0,1,1,1.026,1.138l-3.185,2.869A.76.76,0,0,1,597.694,2664.225Z" transform="translate(-596.927 -2659.823)" fill="#fff"/>
        </g>
        <g id="Group_1927" data-name="Group 1927" transform="translate(0 12.832)">
          <path id="Path_2457" data-name="Path 2457" d="M597.13,2668.379a.766.766,0,0,1-.513-1.336l3.679-3.314a.766.766,0,1,1,1.026,1.139l-3.679,3.314A.758.758,0,0,1,597.13,2668.379Z" transform="translate(-596.363 -2663.532)" fill="#fff"/>
        </g>
      </g>
      <g id="Group_1934" data-name="Group 1934" transform="translate(8.32 2.82)">
        <g id="Group_1929" data-name="Group 1929">
          <path id="Path_2458" data-name="Path 2458" d="M608.012,2651.617a.762.762,0,0,1-.513-.2l-1.375-1.238a.766.766,0,1,1,1.026-1.139l1.375,1.238a.767.767,0,0,1-.513,1.336Z" transform="translate(-605.871 -2648.846)" fill="#fff"/>
        </g>
        <g id="Group_1930" data-name="Group 1930" transform="translate(0 3.155)">
          <path id="Path_2459" data-name="Path 2459" d="M608.705,2655.847a.758.758,0,0,1-.513-.2l-2.068-1.862a.766.766,0,0,1,1.026-1.139l2.068,1.862a.767.767,0,0,1-.513,1.336Z" transform="translate(-605.871 -2652.452)" fill="#fff"/>
        </g>
        <g id="Group_1931" data-name="Group 1931" transform="translate(0 6.359)">
          <path id="Path_2460" data-name="Path 2460" d="M609.291,2660.036a.76.76,0,0,1-.513-.2l-2.653-2.39a.766.766,0,0,1,1.026-1.139l2.653,2.39a.766.766,0,0,1-.513,1.336Z" transform="translate(-605.871 -2656.113)" fill="#fff"/>
        </g>
        <g id="Group_1932" data-name="Group 1932" transform="translate(0 9.587)">
          <path id="Path_2461" data-name="Path 2461" d="M609.823,2664.2a.76.76,0,0,1-.513-.2l-3.185-2.868A.766.766,0,0,1,607.15,2660l3.185,2.869a.766.766,0,0,1-.513,1.336Z" transform="translate(-605.871 -2659.802)" fill="#fff"/>
        </g>
        <g id="Group_1933" data-name="Group 1933" transform="translate(0 12.832)">
          <path id="Path_2462" data-name="Path 2462" d="M610.317,2668.357a.758.758,0,0,1-.513-.2l-3.68-3.314a.766.766,0,1,1,1.026-1.139l3.68,3.314a.766.766,0,0,1-.513,1.336Z" transform="translate(-605.871 -2663.51)" fill="#fff"/>
        </g>
      </g>
    </g>
    <g id="Group_1949" data-name="Group 1949" transform="translate(29.973 24.711)">
      <g id="Group_1936" data-name="Group 1936" transform="translate(6.004)">
        <path id="Path_2463" data-name="Path 2463" d="M586.474,2661.761a.766.766,0,0,1-.767-.766v-21.435a.767.767,0,1,1,1.533,0V2661A.766.766,0,0,1,586.474,2661.761Z" transform="translate(-585.707 -2638.794)" fill="#fff"/>
      </g>
      <g id="Group_1942" data-name="Group 1942" transform="translate(0 2.839)">
        <g id="Group_1937" data-name="Group 1937" transform="translate(2.304)">
          <path id="Path_2464" data-name="Path 2464" d="M582.245,2644.81a.767.767,0,0,1-.514-1.336l1.375-1.238a.767.767,0,0,1,1.026,1.139l-1.375,1.238A.761.761,0,0,1,582.245,2644.81Z" transform="translate(-581.479 -2642.038)" fill="#fff"/>
        </g>
        <g id="Group_1938" data-name="Group 1938" transform="translate(1.612 3.156)">
          <path id="Path_2465" data-name="Path 2465" d="M581.455,2649.04a.766.766,0,0,1-.514-1.336l2.067-1.862a.767.767,0,1,1,1.026,1.139l-2.067,1.862A.765.765,0,0,1,581.455,2649.04Z" transform="translate(-580.688 -2645.645)" fill="#fff"/>
        </g>
        <g id="Group_1939" data-name="Group 1939" transform="translate(1.026 6.36)">
          <path id="Path_2466" data-name="Path 2466" d="M580.786,2653.229a.766.766,0,0,1-.514-1.336l2.652-2.39a.767.767,0,1,1,1.026,1.139l-2.652,2.389A.764.764,0,0,1,580.786,2653.229Z" transform="translate(-580.018 -2649.306)" fill="#fff"/>
        </g>
        <g id="Group_1940" data-name="Group 1940" transform="translate(0.494 9.587)">
          <path id="Path_2467" data-name="Path 2467" d="M580.177,2657.4a.766.766,0,0,1-.514-1.336l3.184-2.869a.767.767,0,1,1,1.026,1.139l-3.184,2.869A.765.765,0,0,1,580.177,2657.4Z" transform="translate(-579.41 -2652.994)" fill="#fff"/>
        </g>
        <g id="Group_1941" data-name="Group 1941" transform="translate(0 12.833)">
          <path id="Path_2468" data-name="Path 2468" d="M579.612,2661.55a.767.767,0,0,1-.514-1.336l3.679-3.314a.767.767,0,1,1,1.026,1.139l-3.679,3.313A.763.763,0,0,1,579.612,2661.55Z" transform="translate(-578.846 -2656.703)" fill="#fff"/>
        </g>
      </g>
      <g id="Group_1948" data-name="Group 1948" transform="translate(8.321 2.82)">
        <g id="Group_1943" data-name="Group 1943">
          <path id="Path_2469" data-name="Path 2469" d="M590.5,2644.789a.761.761,0,0,1-.513-.2l-1.375-1.238a.766.766,0,0,1,1.026-1.139l1.375,1.238a.767.767,0,0,1-.513,1.336Z" transform="translate(-588.354 -2642.017)" fill="#fff"/>
        </g>
        <g id="Group_1944" data-name="Group 1944" transform="translate(0 3.155)">
          <path id="Path_2470" data-name="Path 2470" d="M591.188,2649.018a.76.76,0,0,1-.513-.2l-2.068-1.863a.766.766,0,1,1,1.026-1.139l2.068,1.862a.766.766,0,0,1-.513,1.336Z" transform="translate(-588.354 -2645.623)" fill="#fff"/>
        </g>
        <g id="Group_1945" data-name="Group 1945" transform="translate(0 6.359)">
          <path id="Path_2471" data-name="Path 2471" d="M591.774,2653.207a.759.759,0,0,1-.513-.2l-2.653-2.39a.766.766,0,0,1,1.026-1.139l2.653,2.39a.767.767,0,0,1-.513,1.336Z" transform="translate(-588.354 -2649.284)" fill="#fff"/>
        </g>
        <g id="Group_1946" data-name="Group 1946" transform="translate(0 9.587)">
          <path id="Path_2472" data-name="Path 2472" d="M592.306,2657.375a.761.761,0,0,1-.513-.2l-3.185-2.868a.766.766,0,1,1,1.026-1.139l3.185,2.868a.767.767,0,0,1-.513,1.336Z" transform="translate(-588.354 -2652.972)" fill="#fff"/>
        </g>
        <g id="Group_1947" data-name="Group 1947" transform="translate(0 12.832)">
          <path id="Path_2473" data-name="Path 2473" d="M592.8,2661.528a.76.76,0,0,1-.513-.2l-3.679-3.314a.766.766,0,0,1,1.026-1.139l3.679,3.314a.767.767,0,0,1-.513,1.336Z" transform="translate(-588.354 -2656.681)" fill="#fff"/>
        </g>
      </g>
    </g>
    <g id="Group_1963" data-name="Group 1963" transform="translate(61.143 24.711)">
      <g id="Group_1950" data-name="Group 1950" transform="translate(6.004)">
        <path id="Path_2474" data-name="Path 2474" d="M622.093,2661.761a.766.766,0,0,1-.767-.766v-21.435a.767.767,0,0,1,1.534,0V2661A.766.766,0,0,1,622.093,2661.761Z" transform="translate(-621.326 -2638.794)" fill="#fff"/>
      </g>
      <g id="Group_1956" data-name="Group 1956" transform="translate(0 2.839)">
        <g id="Group_1951" data-name="Group 1951" transform="translate(2.305)">
          <path id="Path_2475" data-name="Path 2475" d="M617.866,2644.81a.767.767,0,0,1-.513-1.336l1.375-1.238a.767.767,0,0,1,1.026,1.139l-1.375,1.238A.76.76,0,0,1,617.866,2644.81Z" transform="translate(-617.099 -2642.038)" fill="#fff"/>
        </g>
        <g id="Group_1952" data-name="Group 1952" transform="translate(1.611 3.156)">
          <path id="Path_2476" data-name="Path 2476" d="M617.074,2649.04a.766.766,0,0,1-.513-1.336l2.068-1.862a.766.766,0,1,1,1.026,1.139l-2.068,1.862A.765.765,0,0,1,617.074,2649.04Z" transform="translate(-616.307 -2645.645)" fill="#fff"/>
        </g>
        <g id="Group_1953" data-name="Group 1953" transform="translate(1.026 6.36)">
          <path id="Path_2477" data-name="Path 2477" d="M616.4,2653.229a.767.767,0,0,1-.513-1.337l2.653-2.389a.766.766,0,0,1,1.026,1.139l-2.653,2.39A.767.767,0,0,1,616.4,2653.229Z" transform="translate(-615.638 -2649.306)" fill="#fff"/>
        </g>
        <g id="Group_1954" data-name="Group 1954" transform="translate(0.494 9.587)">
          <path id="Path_2478" data-name="Path 2478" d="M615.8,2657.4a.766.766,0,0,1-.513-1.336l3.185-2.869a.766.766,0,1,1,1.026,1.139l-3.185,2.869A.761.761,0,0,1,615.8,2657.4Z" transform="translate(-615.03 -2652.995)" fill="#fff"/>
        </g>
        <g id="Group_1955" data-name="Group 1955" transform="translate(0 12.832)">
          <path id="Path_2479" data-name="Path 2479" d="M615.232,2661.55a.767.767,0,0,1-.513-1.337l3.679-3.313a.766.766,0,0,1,1.026,1.139l-3.679,3.314A.766.766,0,0,1,615.232,2661.55Z" transform="translate(-614.465 -2656.703)" fill="#fff"/>
        </g>
      </g>
      <g id="Group_1962" data-name="Group 1962" transform="translate(8.321 2.82)">
        <g id="Group_1957" data-name="Group 1957">
          <path id="Path_2480" data-name="Path 2480" d="M626.115,2644.789a.761.761,0,0,1-.513-.2l-1.375-1.238a.766.766,0,0,1,1.026-1.139l1.375,1.238a.767.767,0,0,1-.513,1.336Z" transform="translate(-623.974 -2642.017)" fill="#fff"/>
        </g>
        <g id="Group_1958" data-name="Group 1958" transform="translate(0 3.155)">
          <path id="Path_2481" data-name="Path 2481" d="M626.808,2649.018a.76.76,0,0,1-.513-.2l-2.068-1.863a.766.766,0,0,1,1.026-1.139l2.068,1.862a.766.766,0,0,1-.513,1.336Z" transform="translate(-623.974 -2645.623)" fill="#fff"/>
        </g>
        <g id="Group_1959" data-name="Group 1959" transform="translate(0 6.359)">
          <path id="Path_2482" data-name="Path 2482" d="M627.394,2653.207a.759.759,0,0,1-.513-.2l-2.653-2.39a.766.766,0,0,1,1.026-1.139l2.653,2.39a.767.767,0,0,1-.513,1.336Z" transform="translate(-623.974 -2649.284)" fill="#fff"/>
        </g>
        <g id="Group_1960" data-name="Group 1960" transform="translate(0 9.587)">
          <path id="Path_2483" data-name="Path 2483" d="M627.925,2657.375a.762.762,0,0,1-.513-.2l-3.184-2.868a.766.766,0,1,1,1.026-1.139l3.184,2.868a.767.767,0,0,1-.513,1.336Z" transform="translate(-623.974 -2652.972)" fill="#fff"/>
        </g>
        <g id="Group_1961" data-name="Group 1961" transform="translate(0 12.832)">
          <path id="Path_2484" data-name="Path 2484" d="M628.419,2661.528a.76.76,0,0,1-.513-.2l-3.679-3.314a.766.766,0,0,1,1.026-1.139l3.679,3.314a.767.767,0,0,1-.513,1.336Z" transform="translate(-623.974 -2656.681)" fill="#fff"/>
        </g>
      </g>
    </g>
    <path id="Path_2485" data-name="Path 2485" d="M574.732,2611.969a1.527,1.527,0,1,0-1.41,1.636A1.527,1.527,0,0,0,574.732,2611.969Zm-2.809,14.176a2.828,2.828,0,0,0,2.059.677,2.8,2.8,0,0,0,1.159-.344l11.955-7.344a.762.762,0,1,0-.8-1.3l-6.037,3.71-1.618-2.075,2.206-2.562a2.026,2.026,0,0,0,.433-1.767l-3.269,1.936-1.187,1.379a1.526,1.526,0,0,0-.047,1.936l1.734,2.227-4.143,2.545a1.294,1.294,0,0,1-1.451-.17.761.761,0,1,0-1,1.152Zm11.286-13.413.777-.791a.166.166,0,0,0,0-.236.16.16,0,0,0-.162-.042l-1.075.3h-.006l-.4-.663a1.236,1.236,0,0,0-.58,1.179l-1.909,1.131-2.652-.84a2.044,2.044,0,0,0-2.588,1.442l-.422,1.664-1.592.95a1.017,1.017,0,1,0,1.042,1.747l1.775-1.056a1.514,1.514,0,0,0,.7-.935l.157-.621,1.059.336,3.5-2.071-.007-.01,1.442-.853a1.244,1.244,0,0,0,1.37.052l-.418-.687Z" transform="translate(-547.975 -2610.555)" fill="#fff"/>
    <path id="Path_2486" data-name="Path 2486" d="M550.26,2643.129l46.624-28.32,8.52,9.3" transform="translate(-545.302 -2611.087)" fill="none" stroke="#fff" stroke-linecap="round" stroke-miterlimit="10" stroke-width="1.5"/>
    <path id="Path_2487" data-name="Path 2487" d="M594.034,2637.107l20.818-14.271,6.82,7.284" transform="translate(-550.77 -2612.09)" fill="none" stroke="#fff" stroke-linecap="round" stroke-miterlimit="10" stroke-width="1.5"/>
    <line id="Line_157" data-name="Line 157" x1="19.246" transform="translate(2.853 21.631)" fill="none" stroke="#fff" stroke-linecap="round" stroke-miterlimit="10" stroke-width="1.5"/>
  </g>
</svg>
