<svg xmlns="http://www.w3.org/2000/svg" width="67.141" height="36.885" viewBox="0 0 67.141 36.885">
  <g id="Group_2514" data-name="Group 2514" transform="translate(0 -16.013)">
    <g id="Group_2046" data-name="Group 2046" transform="translate(35.186 29.93)">
      <g id="Group_2033" data-name="Group 2033" transform="translate(6.004)">
        <path id="Path_2533" data-name="Path 2533" d="M481.518,2533.844a.767.767,0,0,1-.767-.767v-21.435a.767.767,0,1,1,1.533,0v21.435A.768.768,0,0,1,481.518,2533.844Z" transform="translate(-480.751 -2510.876)" fill="#fff"/>
      </g>
      <g id="Group_2039" data-name="Group 2039" transform="translate(0 2.84)">
        <g id="Group_2034" data-name="Group 2034" transform="translate(2.304)">
          <path id="Path_2534" data-name="Path 2534" d="M477.29,2516.893a.766.766,0,0,1-.514-1.336l1.375-1.239a.767.767,0,0,1,1.026,1.139L477.8,2516.7A.766.766,0,0,1,477.29,2516.893Z" transform="translate(-476.523 -2514.121)" fill="#fff"/>
        </g>
        <g id="Group_2035" data-name="Group 2035" transform="translate(1.611 3.155)">
          <path id="Path_2535" data-name="Path 2535" d="M476.5,2521.123a.767.767,0,0,1-.514-1.336l2.068-1.862a.767.767,0,0,1,1.026,1.139l-2.068,1.862A.763.763,0,0,1,476.5,2521.123Z" transform="translate(-475.731 -2517.727)" fill="#fff"/>
        </g>
        <g id="Group_2036" data-name="Group 2036" transform="translate(1.026 6.359)">
          <path id="Path_2536" data-name="Path 2536" d="M475.829,2525.311a.766.766,0,0,1-.514-1.336l2.653-2.39a.767.767,0,0,1,1.026,1.139l-2.653,2.39A.763.763,0,0,1,475.829,2525.311Z" transform="translate(-475.062 -2521.388)" fill="#fff"/>
        </g>
        <g id="Group_2037" data-name="Group 2037" transform="translate(0.494 9.587)">
          <path id="Path_2537" data-name="Path 2537" d="M475.222,2529.479a.766.766,0,0,1-.514-1.336l3.185-2.869a.767.767,0,1,1,1.026,1.139l-3.185,2.869A.765.765,0,0,1,475.222,2529.479Z" transform="translate(-474.455 -2525.076)" fill="#fff"/>
        </g>
        <g id="Group_2038" data-name="Group 2038" transform="translate(0 12.832)">
          <path id="Path_2538" data-name="Path 2538" d="M474.657,2533.632a.766.766,0,0,1-.514-1.336l3.679-3.314a.767.767,0,0,1,1.026,1.139l-3.679,3.314A.766.766,0,0,1,474.657,2533.632Z" transform="translate(-473.89 -2528.785)" fill="#fff"/>
        </g>
      </g>
      <g id="Group_2045" data-name="Group 2045" transform="translate(8.321 2.82)">
        <g id="Group_2040" data-name="Group 2040">
          <path id="Path_2539" data-name="Path 2539" d="M485.539,2516.871a.764.764,0,0,1-.513-.2l-1.375-1.238a.767.767,0,0,1,1.026-1.139l1.375,1.238a.766.766,0,0,1-.514,1.336Z" transform="translate(-483.399 -2514.099)" fill="#fff"/>
        </g>
        <g id="Group_2041" data-name="Group 2041" transform="translate(0 3.155)">
          <path id="Path_2540" data-name="Path 2540" d="M486.232,2521.1a.765.765,0,0,1-.513-.2l-2.067-1.862a.767.767,0,0,1,1.026-1.139l2.067,1.862a.767.767,0,0,1-.514,1.336Z" transform="translate(-483.399 -2517.705)" fill="#fff"/>
        </g>
        <g id="Group_2042" data-name="Group 2042" transform="translate(0 6.359)">
          <path id="Path_2541" data-name="Path 2541" d="M486.817,2525.289a.766.766,0,0,1-.513-.2l-2.652-2.39a.767.767,0,0,1,1.026-1.139l2.652,2.39a.766.766,0,0,1-.514,1.336Z" transform="translate(-483.399 -2521.366)" fill="#fff"/>
        </g>
        <g id="Group_2043" data-name="Group 2043" transform="translate(0 9.587)">
          <path id="Path_2542" data-name="Path 2542" d="M487.349,2529.456a.766.766,0,0,1-.513-.2l-3.184-2.869a.767.767,0,0,1,1.026-1.139l3.184,2.868a.766.766,0,0,1-.514,1.336Z" transform="translate(-483.399 -2525.055)" fill="#fff"/>
        </g>
        <g id="Group_2044" data-name="Group 2044" transform="translate(0 12.832)">
          <path id="Path_2543" data-name="Path 2543" d="M487.843,2533.61a.762.762,0,0,1-.513-.2l-3.679-3.314a.767.767,0,0,1,1.026-1.139l3.679,3.314a.767.767,0,0,1-.514,1.336Z" transform="translate(-483.399 -2528.763)" fill="#fff"/>
        </g>
      </g>
    </g>
    <g id="Group_2060" data-name="Group 2060" transform="translate(10.823 28.393)">
      <g id="Group_2047" data-name="Group 2047" transform="translate(6.003)">
        <path id="Path_2544" data-name="Path 2544" d="M453.676,2532.087a.768.768,0,0,1-.767-.767v-21.435a.767.767,0,0,1,1.534,0v21.435A.768.768,0,0,1,453.676,2532.087Z" transform="translate(-452.909 -2509.119)" fill="#fff"/>
      </g>
      <g id="Group_2053" data-name="Group 2053" transform="translate(0 2.84)">
        <g id="Group_2048" data-name="Group 2048" transform="translate(2.304)">
          <path id="Path_2545" data-name="Path 2545" d="M449.449,2515.135a.767.767,0,0,1-.514-1.336l1.375-1.238a.767.767,0,1,1,1.026,1.139l-1.375,1.238A.763.763,0,0,1,449.449,2515.135Z" transform="translate(-448.682 -2512.364)" fill="#fff"/>
        </g>
        <g id="Group_2049" data-name="Group 2049" transform="translate(1.611 3.155)">
          <path id="Path_2546" data-name="Path 2546" d="M448.657,2519.366a.767.767,0,0,1-.514-1.336l2.067-1.862a.767.767,0,1,1,1.026,1.139l-2.067,1.862A.766.766,0,0,1,448.657,2519.366Z" transform="translate(-447.89 -2515.97)" fill="#fff"/>
        </g>
        <g id="Group_2050" data-name="Group 2050" transform="translate(1.026 6.359)">
          <path id="Path_2547" data-name="Path 2547" d="M447.988,2523.554a.766.766,0,0,1-.514-1.336l2.652-2.39a.767.767,0,1,1,1.026,1.139l-2.652,2.39A.765.765,0,0,1,447.988,2523.554Z" transform="translate(-447.221 -2519.631)" fill="#fff"/>
        </g>
        <g id="Group_2051" data-name="Group 2051" transform="translate(0.493 9.587)">
          <path id="Path_2548" data-name="Path 2548" d="M447.38,2527.722a.767.767,0,0,1-.514-1.336l3.185-2.868a.767.767,0,1,1,1.026,1.139l-3.185,2.869A.763.763,0,0,1,447.38,2527.722Z" transform="translate(-446.613 -2523.32)" fill="#fff"/>
        </g>
        <g id="Group_2052" data-name="Group 2052" transform="translate(0 12.832)">
          <path id="Path_2549" data-name="Path 2549" d="M446.816,2531.875a.766.766,0,0,1-.513-1.336l3.678-3.314a.767.767,0,1,1,1.026,1.139l-3.678,3.314A.767.767,0,0,1,446.816,2531.875Z" transform="translate(-446.049 -2527.028)" fill="#fff"/>
        </g>
      </g>
      <g id="Group_2059" data-name="Group 2059" transform="translate(8.32 2.82)">
        <g id="Group_2054" data-name="Group 2054">
          <path id="Path_2550" data-name="Path 2550" d="M457.7,2515.113a.764.764,0,0,1-.513-.2l-1.374-1.238a.767.767,0,1,1,1.026-1.139l1.374,1.238a.766.766,0,0,1-.514,1.336Z" transform="translate(-455.557 -2512.342)" fill="#fff"/>
        </g>
        <g id="Group_2055" data-name="Group 2055" transform="translate(0 3.156)">
          <path id="Path_2551" data-name="Path 2551" d="M458.391,2519.344a.767.767,0,0,1-.513-.2l-2.067-1.862a.767.767,0,1,1,1.026-1.139l2.067,1.862a.766.766,0,0,1-.514,1.336Z" transform="translate(-455.557 -2515.948)" fill="#fff"/>
        </g>
        <g id="Group_2056" data-name="Group 2056" transform="translate(0 6.36)">
          <path id="Path_2552" data-name="Path 2552" d="M458.976,2523.532a.766.766,0,0,1-.513-.2l-2.652-2.389a.767.767,0,1,1,1.026-1.139l2.652,2.389a.766.766,0,0,1-.514,1.336Z" transform="translate(-455.557 -2519.61)" fill="#fff"/>
        </g>
        <g id="Group_2057" data-name="Group 2057" transform="translate(0 9.587)">
          <path id="Path_2553" data-name="Path 2553" d="M459.508,2527.7a.765.765,0,0,1-.513-.2l-3.184-2.868a.767.767,0,1,1,1.026-1.139l3.184,2.869a.767.767,0,0,1-.514,1.336Z" transform="translate(-455.557 -2523.298)" fill="#fff"/>
        </g>
        <g id="Group_2058" data-name="Group 2058" transform="translate(0 12.833)">
          <path id="Path_2554" data-name="Path 2554" d="M460,2531.853a.765.765,0,0,1-.513-.2l-3.678-3.314a.766.766,0,1,1,1.026-1.138l3.678,3.313a.766.766,0,0,1-.514,1.336Z" transform="translate(-455.557 -2527.007)" fill="#fff"/>
        </g>
      </g>
    </g>
    <g id="Group_2074" data-name="Group 2074" transform="translate(53.609 21.115)">
      <g id="Group_2061" data-name="Group 2061" transform="translate(6.003)">
        <path id="Path_2555" data-name="Path 2555" d="M502.57,2523.77a.767.767,0,0,1-.767-.767v-21.434a.767.767,0,0,1,1.533,0V2523A.766.766,0,0,1,502.57,2523.77Z" transform="translate(-501.803 -2500.803)" fill="#fff"/>
      </g>
      <g id="Group_2067" data-name="Group 2067" transform="translate(0 2.839)">
        <g id="Group_2062" data-name="Group 2062" transform="translate(2.304)">
          <path id="Path_2556" data-name="Path 2556" d="M498.343,2506.819a.767.767,0,0,1-.514-1.336l1.375-1.238a.766.766,0,1,1,1.026,1.138l-1.375,1.238A.764.764,0,0,1,498.343,2506.819Z" transform="translate(-497.576 -2504.047)" fill="#fff"/>
        </g>
        <g id="Group_2063" data-name="Group 2063" transform="translate(1.611 3.155)">
          <path id="Path_2557" data-name="Path 2557" d="M497.551,2511.049a.767.767,0,0,1-.514-1.337l2.067-1.861a.767.767,0,1,1,1.026,1.139l-2.067,1.862A.77.77,0,0,1,497.551,2511.049Z" transform="translate(-496.784 -2507.653)" fill="#fff"/>
        </g>
        <g id="Group_2064" data-name="Group 2064" transform="translate(1.026 6.36)">
          <path id="Path_2558" data-name="Path 2558" d="M496.882,2515.237a.766.766,0,0,1-.513-1.336l2.652-2.389a.767.767,0,1,1,1.026,1.139l-2.652,2.389A.767.767,0,0,1,496.882,2515.237Z" transform="translate(-496.115 -2511.315)" fill="#fff"/>
        </g>
        <g id="Group_2065" data-name="Group 2065" transform="translate(0.494 9.587)">
          <path id="Path_2559" data-name="Path 2559" d="M496.274,2519.406a.767.767,0,0,1-.514-1.336l3.184-2.868a.766.766,0,1,1,1.026,1.138l-3.184,2.869A.765.765,0,0,1,496.274,2519.406Z" transform="translate(-495.507 -2515.003)" fill="#fff"/>
        </g>
        <g id="Group_2066" data-name="Group 2066" transform="translate(0 12.832)">
          <path id="Path_2560" data-name="Path 2560" d="M495.71,2523.558a.767.767,0,0,1-.514-1.336l3.679-3.313a.767.767,0,1,1,1.026,1.139l-3.679,3.313A.761.761,0,0,1,495.71,2523.558Z" transform="translate(-494.943 -2518.711)" fill="#fff"/>
        </g>
      </g>
      <g id="Group_2073" data-name="Group 2073" transform="translate(8.32 2.82)">
        <g id="Group_2068" data-name="Group 2068">
          <path id="Path_2561" data-name="Path 2561" d="M506.592,2506.8a.763.763,0,0,1-.513-.2l-1.375-1.238a.767.767,0,1,1,1.026-1.139l1.375,1.238a.767.767,0,0,1-.514,1.336Z" transform="translate(-504.451 -2504.026)" fill="#fff"/>
        </g>
        <g id="Group_2069" data-name="Group 2069" transform="translate(0 3.155)">
          <path id="Path_2562" data-name="Path 2562" d="M507.284,2511.027a.764.764,0,0,1-.513-.2l-2.067-1.862a.767.767,0,1,1,1.026-1.139l2.067,1.862a.767.767,0,0,1-.514,1.336Z" transform="translate(-504.451 -2507.632)" fill="#fff"/>
        </g>
        <g id="Group_2070" data-name="Group 2070" transform="translate(0 6.359)">
          <path id="Path_2563" data-name="Path 2563" d="M507.87,2515.216a.766.766,0,0,1-.513-.2l-2.652-2.389a.767.767,0,0,1,1.026-1.14l2.652,2.39a.766.766,0,0,1-.514,1.336Z" transform="translate(-504.451 -2511.292)" fill="#fff"/>
        </g>
        <g id="Group_2071" data-name="Group 2071" transform="translate(0 9.587)">
          <path id="Path_2564" data-name="Path 2564" d="M508.4,2519.384a.764.764,0,0,1-.513-.2l-3.184-2.869a.767.767,0,1,1,1.026-1.139l3.184,2.869a.767.767,0,0,1-.514,1.336Z" transform="translate(-504.451 -2514.981)" fill="#fff"/>
        </g>
        <g id="Group_2072" data-name="Group 2072" transform="translate(0 12.832)">
          <path id="Path_2565" data-name="Path 2565" d="M508.9,2523.537a.766.766,0,0,1-.513-.2l-3.678-3.313a.767.767,0,1,1,1.026-1.139l3.678,3.314a.767.767,0,0,1-.514,1.336Z" transform="translate(-504.451 -2518.69)" fill="#fff"/>
        </g>
      </g>
    </g>
    <g id="Group_2075" data-name="Group 2075" transform="translate(0 16.013)">
      <path id="Path_2566" data-name="Path 2566" d="M434.448,2517.045a.767.767,0,0,1-.613-1.229l4.224-5.594a.765.765,0,0,1,.179-.17l21.8-14.946a.768.768,0,0,1,.888.014l4.285,3.15a8.1,8.1,0,0,0,9.285-1.452.782.782,0,0,1,.564-.207.765.765,0,0,1,.54.262l16.023,18.383a.767.767,0,0,1-1.156,1.007l-15.519-17.8a9.807,9.807,0,0,1-10.519,1.131.889.889,0,0,1-.083-.052l-3.891-2.86-21.251,14.567-.918,1.216,1.66-1.236a.826.826,0,0,1,.084-.054l17.357-9.69a.766.766,0,0,1,.927.139l12.15,12.679a.767.767,0,0,1-1.107,1.061l-11.741-12.251-16.8,9.376-5.92,4.406A.765.765,0,0,1,434.448,2517.045Z" transform="translate(-433.681 -2494.972)" fill="#fff"/>
    </g>
  </g>
</svg>
