<?xml version="1.0" encoding="utf-8"?>
<!-- Generator: Adobe Illustrator 25.2.0, SVG Export Plug-In . SVG Version: 6.00 Build 0)  -->
<svg version="1.1" xmlns="http://www.w3.org/2000/svg" xmlns:xlink="http://www.w3.org/1999/xlink" x="0px" y="0px"
	 viewBox="0 0 87.07 86.39" style="enable-background:new 0 0 87.07 86.39;" xml:space="preserve">
<style type="text/css">
	.st0{fill:#10649F;}
	.st1{display:none;}
	.st2{display:inline;fill:#FFFFFF;}
	.st3{fill:#FFFFFF;}
</style>
<g id="Layer_1">
	<circle class="st0" cx="43.53" cy="43.19" r="40"/>
</g>
<g id="facebook" class="st1">
	<path class="st2" d="M53.06,45.75l1.14-7.41h-7.11v-4.81c0-2.03,0.99-4,4.18-4h3.23v-6.31c0,0-2.93-0.5-5.74-0.5
		c-5.85,0-9.68,3.55-9.68,9.97v5.65h-6.51v7.41h6.51v17.91h8.01V45.75H53.06z"/>
</g>
<g id="twitter" class="st1">
	<path class="st2" d="M61.69,33.88c0.03,0.41,0.03,0.81,0.03,1.22c0,12.38-9.42,26.65-26.65,26.65c-5.31,0-10.24-1.54-14.38-4.2
		c0.75,0.09,1.48,0.12,2.26,0.12c4.38,0,8.41-1.48,11.63-4c-4.12-0.09-7.57-2.78-8.76-6.5c0.58,0.09,1.16,0.14,1.77,0.14
		c0.84,0,1.68-0.12,2.46-0.32c-4.29-0.87-7.51-4.64-7.51-9.19v-0.12c1.25,0.7,2.7,1.13,4.23,1.19c-2.52-1.68-4.18-4.55-4.18-7.8
		c0-1.74,0.46-3.33,1.28-4.73c4.61,5.68,11.54,9.4,19.31,9.8c-0.14-0.7-0.23-1.42-0.23-2.15c0-5.16,4.18-9.37,9.37-9.37
		c2.7,0,5.13,1.13,6.84,2.96c2.12-0.41,4.15-1.19,5.94-2.26c-0.7,2.17-2.17,4-4.12,5.16c1.88-0.2,3.71-0.72,5.39-1.45
		C65.11,30.9,63.51,32.55,61.69,33.88L61.69,33.88z"/>
</g>
<g id="tiktok" class="st1">
	<path class="st2" d="M61.6,39.48c-3.55,0.01-7.02-1.1-9.9-3.17v14.42c0,7.24-5.88,13.11-13.12,13.11s-13.11-5.88-13.11-13.12
		s5.88-13.11,13.12-13.11c0.6,0,1.2,0.04,1.8,0.12v7.25c-3.17-1-6.55,0.76-7.55,3.94c-1,3.17,0.76,6.55,3.94,7.55
		c3.17,1,6.55-0.76,7.55-3.94c0.18-0.58,0.28-1.19,0.28-1.81V22.55h7.1c0,0.6,0.05,1.2,0.15,1.79l0,0c0.5,2.66,2.07,5,4.35,6.47
		c1.6,1.06,3.48,1.62,5.4,1.62V39.48z"/>
</g>
<g id="instagram" class="st1">
	<path class="st2" d="M43.54,33.8c-5.2,0-9.39,4.19-9.39,9.39s4.19,9.39,9.39,9.39s9.39-4.19,9.39-9.39S48.74,33.8,43.54,33.8z
		 M43.54,49.3c-3.36,0-6.11-2.74-6.11-6.11c0-3.37,2.74-6.11,6.11-6.11c3.37,0,6.11,2.74,6.11,6.11
		C49.64,46.56,46.9,49.3,43.54,49.3L43.54,49.3z M55.5,33.42c0,1.22-0.98,2.19-2.19,2.19c-1.22,0-2.19-0.98-2.19-2.19
		s0.98-2.19,2.19-2.19C54.52,31.23,55.5,32.21,55.5,33.42z M61.72,35.64c-0.14-2.93-0.81-5.53-2.96-7.67
		c-2.14-2.14-4.74-2.81-7.67-2.96c-3.02-0.17-12.09-0.17-15.11,0c-2.93,0.14-5.53,0.81-7.67,2.95s-2.81,4.74-2.96,7.67
		c-0.17,3.02-0.17,12.09,0,15.11c0.14,2.93,0.81,5.53,2.96,7.67s4.74,2.81,7.67,2.96c3.02,0.17,12.09,0.17,15.11,0
		c2.93-0.14,5.53-0.81,7.67-2.96c2.14-2.14,2.81-4.74,2.96-7.67C61.9,47.72,61.9,38.66,61.72,35.64L61.72,35.64z M57.82,53.99
		c-0.64,1.6-1.87,2.84-3.48,3.48c-2.41,0.96-8.13,0.74-10.8,0.74s-8.39,0.21-10.8-0.74c-1.6-0.64-2.84-1.87-3.48-3.48
		c-0.96-2.41-0.74-8.13-0.74-10.8c0-2.66-0.21-8.39,0.74-10.8c0.64-1.6,1.87-2.84,3.48-3.48c2.41-0.96,8.13-0.74,10.8-0.74
		s8.39-0.21,10.8,0.74c1.6,0.64,2.84,1.87,3.48,3.48c0.96,2.41,0.74,8.13,0.74,10.8C58.55,45.86,58.77,51.59,57.82,53.99z"/>
</g>
<g id="snapchat" class="st1">
	<path class="st2" d="M64.96,54.68c-0.44,1.02-2.29,1.77-5.66,2.3c-0.17,0.23-0.32,1.23-0.55,2.01c-0.14,0.47-0.47,0.75-1.02,0.75
		l-0.02,0c-0.79,0-1.61-0.36-3.27-0.36c-2.23,0-3,0.51-4.73,1.73c-1.84,1.3-3.6,2.42-6.22,2.3c-2.66,0.2-4.88-1.42-6.13-2.3
		c-1.74-1.23-2.51-1.73-4.73-1.73c-1.59,0-2.58,0.4-3.27,0.4c-0.68,0-0.94-0.41-1.04-0.76c-0.23-0.77-0.37-1.79-0.55-2.03
		c-1.74-0.27-5.66-0.95-5.76-2.7c-0.03-0.46,0.3-0.86,0.75-0.93c5.85-0.96,8.48-6.97,8.59-7.22c0.01-0.01,0.01-0.03,0.02-0.04
		c0.31-0.63,0.38-1.16,0.21-1.58c-0.42-1-2.26-1.36-3.03-1.66c-1.99-0.79-2.27-1.69-2.15-2.31c0.2-1.08,1.83-1.74,2.77-1.3
		c0.75,0.35,1.42,0.53,1.98,0.53c0.42,0,0.69-0.1,0.84-0.18c-0.17-3.02-0.6-7.34,0.48-9.75c2.84-6.37,8.86-6.86,10.63-6.86
		c0.08,0,0.77-0.01,0.85-0.01c4.38,0,8.6,2.25,10.65,6.86c1.07,2.41,0.65,6.71,0.48,9.75c0.13,0.07,0.37,0.16,0.72,0.18
		c0.54-0.02,1.16-0.2,1.86-0.53c0.51-0.24,1.21-0.21,1.72,0l0,0c0.8,0.28,1.3,0.86,1.31,1.5c0.02,0.82-0.72,1.53-2.18,2.1
		c-0.18,0.07-0.39,0.14-0.62,0.21c-0.82,0.26-2.07,0.66-2.41,1.45c-0.17,0.41-0.11,0.94,0.21,1.58c0.01,0.01,0.01,0.03,0.02,0.04
		c0.11,0.25,2.74,6.26,8.59,7.22C64.85,53.44,65.25,54.01,64.96,54.68L64.96,54.68z"/>
</g>
<g id="youtube" class="st1">
	<path class="st2" d="M63.21,33.27c-0.47-1.78-1.86-3.18-3.63-3.65c-3.2-0.86-16.05-0.86-16.05-0.86s-12.84,0-16.05,0.86
		c-1.77,0.48-3.16,1.88-3.63,3.65C23,36.5,23,43.22,23,43.22s0,6.73,0.86,9.95c0.47,1.78,1.86,3.12,3.63,3.6
		c3.2,0.86,16.05,0.86,16.05,0.86s12.84,0,16.05-0.86c1.77-0.48,3.16-1.82,3.63-3.6c0.86-3.22,0.86-9.95,0.86-9.95
		S64.07,36.5,63.21,33.27z M39.33,49.33V37.12l10.73,6.11L39.33,49.33L39.33,49.33z"/>
</g>
<g id="linkedin">
	<path class="st3" d="M33.03,58.12h-7.89v-25.4h7.89V58.12z M29.08,29.26c-2.52,0-4.57-2.09-4.57-4.61c0-2.52,2.05-4.57,4.57-4.57
		c2.52,0,4.57,2.04,4.57,4.57C33.65,27.17,31.6,29.26,29.08,29.26z M62.55,58.12h-7.87V45.76c0-2.95-0.06-6.72-4.1-6.72
		c-4.1,0-4.73,3.2-4.73,6.51v12.57h-7.88v-25.4h7.56v3.46h0.11c1.05-2,3.62-4.1,7.46-4.1c7.98,0,9.45,5.26,9.45,12.08L62.55,58.12
		L62.55,58.12z"/>
</g>
</svg>
