<?xml version="1.0" encoding="utf-8"?>
<!-- Generator: Adobe Illustrator 25.2.0, SVG Export Plug-In . SVG Version: 6.00 Build 0)  -->
<svg version="1.1" id="Layer_1" xmlns="http://www.w3.org/2000/svg" xmlns:xlink="http://www.w3.org/1999/xlink" x="0px" y="0px"
	 viewBox="0 0 55 55" style="enable-background:new 0 0 55 55;" xml:space="preserve">
<style type="text/css">
	.st0{fill:#FFFFFF;}
</style>
<path class="st0" d="M43.9,20.7c-1.9-0.3-5.3,1.7-6.7,4.7c-2-1.9-5.5-4.6-9.5-5.2l1.5-3.4c-1.7-0.3-4.4,1.2-6.1,3.6
	c-6.1,1.4-10.6,7.1-10.6,7.1s3.9,7.4,13.3,7.4c0.1,0,0.1,0,0.2,0c1,1.4,2.4,2.4,3.5,2.6l-0.3-2.9c3.5-0.7,6-2.5,7.6-4.1
	c0.8,2.6,3,4.6,4.7,4.9l-0.8-7.3L43.9,20.7z M19.4,27.3c-0.7,0-1.3-0.6-1.3-1.3c0-0.7,0.6-1.3,1.3-1.3c0.7,0,1.3,0.6,1.3,1.3
	C20.6,26.7,20.1,27.3,19.4,27.3z"/>
</svg>
