<?xml version="1.0" encoding="utf-8"?>
<!-- Generator: Adobe Illustrator 25.2.0, SVG Export Plug-In . SVG Version: 6.00 Build 0)  -->
<svg version="1.1" id="Layer_1" xmlns="http://www.w3.org/2000/svg" xmlns:xlink="http://www.w3.org/1999/xlink" x="0px" y="0px"
	 viewBox="0 0 30.4 51" style="enable-background:new 0 0 30.4 51;" xml:space="preserve">
<style type="text/css">
	.st0{fill:#FFFFFF;}
</style>
<g id="Group_2513" transform="translate(-19.726 -6.065)">
	<g id="Group_1759" transform="translate(36.577 23.393)">
		<g id="Group_1746" transform="translate(6.003)">
			<path id="Path_2316" class="st0" d="M-0.4,19.9c-0.4,0-0.7-0.3-0.7-0.7c0,0,0,0,0,0V0.7c0-0.4,0.3-0.7,0.7-0.6
				c0.3,0,0.6,0.3,0.6,0.6v18.5C0.3,19.6,0,19.9-0.4,19.9C-0.4,19.9-0.4,19.9-0.4,19.9z"/>
		</g>
		<g id="Group_1752" transform="translate(0 2.84)">
			<g id="Group_1747" transform="translate(2.304)">
				<path id="Path_2317" class="st0" d="M0.1,2.1c-0.4,0-0.7-0.3-0.7-0.7c0-0.2,0.1-0.4,0.2-0.5l1.2-1.1c0.3-0.2,0.7-0.2,0.9,0
					s0.2,0.7,0,0.9L0.6,1.9C0.4,2,0.3,2.1,0.1,2.1z"/>
			</g>
			<g id="Group_1748" transform="translate(1.611 3.155)">
				<path id="Path_2318" class="st0" d="M0.2,2.2c-0.4,0-0.7-0.3-0.7-0.7c0-0.2,0.1-0.4,0.2-0.5l1.8-1.6c0.3-0.3,0.7-0.2,0.9,0
					c0.3,0.3,0.2,0.7,0,0.9c0,0,0,0,0,0L0.7,2C0.5,2.1,0.4,2.2,0.2,2.2z"/>
			</g>
			<g id="Group_1749" transform="translate(1.026 6.359)">
				<path id="Path_2319" class="st0" d="M0.3,2.2c-0.4,0-0.7-0.3-0.7-0.7c0-0.2,0.1-0.4,0.2-0.5L2.1-1c0.3-0.3,0.7-0.2,0.9,0
					c0.3,0.3,0.2,0.7,0,0.9c0,0,0,0,0,0L0.7,2C0.6,2.1,0.5,2.2,0.3,2.2z"/>
			</g>
			<g id="Group_1750" transform="translate(0.494 9.587)">
				<path id="Path_2320" class="st0" d="M0.4,2.2C0,2.2-0.3,1.9-0.3,1.5c0-0.2,0.1-0.4,0.2-0.5l2.7-2.5c0.3-0.3,0.7-0.2,0.9,0
					c0.3,0.3,0.2,0.7,0,0.9c0,0,0,0,0,0L0.8,2C0.7,2.1,0.5,2.2,0.4,2.2z"/>
			</g>
			<g id="Group_1751" transform="translate(0 12.832)">
				<path id="Path_2321" class="st0" d="M0.4,2.1c-0.4,0-0.7-0.3-0.7-0.7C-0.2,1.3-0.1,1.1,0,1l3.2-2.9c0.3-0.3,0.7-0.2,0.9,0
					c0.3,0.3,0.2,0.7,0,0.9c0,0,0,0,0,0L0.9,1.9C0.8,2.1,0.6,2.1,0.4,2.1z"/>
			</g>
		</g>
		<g id="Group_1758" transform="translate(8.32 2.821)">
			<g id="Group_1753">
				<path id="Path_2322" class="st0" d="M0.5,2.1C0.3,2.1,0.2,2,0,1.9l-1.2-1.1c-0.3-0.2-0.3-0.7-0.1-0.9C-1-0.4-0.6-0.4-0.3-0.2
					c0,0,0,0,0,0l1.2,1.1C1.2,1.2,1.2,1.6,1,1.9C0.8,2,0.7,2.1,0.5,2.1L0.5,2.1z"/>
			</g>
			<g id="Group_1754" transform="translate(0 3.156)">
				<path id="Path_2323" class="st0" d="M1.1,2.2C0.9,2.2,0.8,2.1,0.6,2l-1.8-1.6c-0.3-0.2-0.3-0.7-0.1-0.9C-1-0.8-0.6-0.8-0.3-0.6
					c0,0,0,0,0,0L1.5,1c0.3,0.2,0.3,0.7,0,0.9C1.4,2.1,1.3,2.2,1.1,2.2L1.1,2.2z"/>
			</g>
			<g id="Group_1755" transform="translate(0 6.359)">
				<path id="Path_2324" class="st0" d="M1.6,2.2C1.4,2.2,1.3,2.1,1.1,2L-1.1,0C-1.4-0.3-1.5-0.7-1.2-1C-1-1.2-0.6-1.3-0.3-1
					c0,0,0,0,0,0L2,1.1c0.3,0.2,0.3,0.7,0,0.9C1.9,2.1,1.8,2.2,1.6,2.2L1.6,2.2z"/>
			</g>
			<g id="Group_1756" transform="translate(0 9.587)">
				<path id="Path_2325" class="st0" d="M2,2.2C1.9,2.2,1.7,2.1,1.6,2l-2.7-2.5c-0.3-0.2-0.3-0.7,0-0.9s0.7-0.3,0.9,0L2.5,1
					c0.3,0.2,0.3,0.7,0,0.9C2.4,2.1,2.2,2.2,2,2.2L2,2.2z"/>
			</g>
			<g id="Group_1757" transform="translate(0 12.832)">
				<path id="Path_2326" class="st0" d="M2.5,2.1C2.3,2.1,2.1,2.1,2,1.9l-3.2-2.9c-0.3-0.2-0.3-0.7-0.1-0.9C-1-2.1-0.6-2.2-0.3-1.9
					c0,0,0,0,0,0L2.9,1C3.2,1.2,3.2,1.6,3,1.9C2.8,2,2.7,2.1,2.5,2.1L2.5,2.1z"/>
			</g>
		</g>
	</g>
	<g id="Group_1773" transform="translate(19.726 34.11)">
		<g id="Group_1760" transform="translate(6.003)">
			<path id="Path_2327" class="st0" d="M1.9,18.4c-0.4,0-0.7-0.3-0.7-0.7c0,0,0,0,0,0V-0.7c0-0.4,0.3-0.7,0.6-0.7s0.7,0.3,0.7,0.6
				c0,0,0,0,0,0v18.5C2.6,18.1,2.3,18.4,1.9,18.4C1.9,18.4,1.9,18.4,1.9,18.4z"/>
		</g>
		<g id="Group_1766" transform="translate(0 2.84)">
			<g id="Group_1761" transform="translate(2.304)">
				<path id="Path_2328" class="st0" d="M2.4,0.6C2.1,0.6,1.8,0.3,1.8,0c0-0.2,0.1-0.4,0.2-0.5l1.2-1.1c0.3-0.2,0.7-0.2,0.9,0
					s0.2,0.7,0,0.9l0,0L2.9,0.4C2.8,0.6,2.6,0.6,2.4,0.6z"/>
			</g>
			<g id="Group_1762" transform="translate(1.612 3.156)">
				<path id="Path_2329" class="st0" d="M2.5,0.7c-0.4,0-0.7-0.3-0.7-0.7c0-0.2,0.1-0.4,0.2-0.5L3.9-2c0.3-0.2,0.7-0.2,0.9,0
					s0.2,0.7,0,0.9L3,0.6C2.8,0.7,2.7,0.7,2.5,0.7z"/>
			</g>
			<g id="Group_1763" transform="translate(1.026 6.359)">
				<path id="Path_2330" class="st0" d="M2.6,0.7c-0.4,0-0.7-0.3-0.7-0.7c0-0.2,0.1-0.4,0.2-0.5l2.3-2.1c0.3-0.3,0.7-0.2,0.9,0
					c0.3,0.3,0.2,0.7,0,0.9c0,0,0,0,0,0L3,0.6C2.9,0.7,2.8,0.7,2.6,0.7z"/>
			</g>
			<g id="Group_1764" transform="translate(0.494 9.587)">
				<path id="Path_2331" class="st0" d="M2.7,0.7C2.3,0.7,2,0.4,2,0c0-0.2,0.1-0.4,0.2-0.5L5-2.9c0.3-0.2,0.7-0.2,0.9,0.1
					c0.2,0.3,0.2,0.7,0,0.9L3.1,0.5C3,0.6,2.8,0.7,2.7,0.7z"/>
			</g>
			<g id="Group_1765" transform="translate(0 12.832)">
				<path id="Path_2332" class="st0" d="M2.7,0.6C2.4,0.6,2.1,0.4,2.1,0c0-0.2,0.1-0.4,0.2-0.5l3.2-2.9c0.3-0.2,0.7-0.2,0.9,0
					s0.2,0.7,0,0.9L3.2,0.5C3.1,0.6,2.9,0.6,2.7,0.6z"/>
			</g>
		</g>
		<g id="Group_1772" transform="translate(8.32 2.821)">
			<g id="Group_1767">
				<path id="Path_2333" class="st0" d="M2.8,0.6c-0.2,0-0.3-0.1-0.4-0.2L1.2-0.6C0.9-0.9,0.8-1.3,1.1-1.6C1.3-1.8,1.7-1.9,2-1.6
					c0,0,0,0,0,0l1.2,1.1c0.3,0.2,0.3,0.7,0,0.9C3.2,0.5,3,0.6,2.8,0.6L2.8,0.6z"/>
			</g>
			<g id="Group_1768" transform="translate(0 3.155)">
				<path id="Path_2334" class="st0" d="M3.4,0.7c-0.2,0-0.3-0.1-0.4-0.2L1.2-1.1C0.9-1.3,0.8-1.7,1.1-2C1.3-2.3,1.7-2.3,2-2.1
					c0,0,0,0,0,0l1.8,1.6c0.3,0.2,0.3,0.7,0,0.9C3.8,0.6,3.6,0.7,3.4,0.7L3.4,0.7z"/>
			</g>
			<g id="Group_1769" transform="translate(0 6.359)">
				<path id="Path_2335" class="st0" d="M3.9,0.7c-0.2,0-0.3-0.1-0.4-0.2L1.2-1.5c-0.3-0.3-0.3-0.7,0-0.9c0.2-0.2,0.6-0.3,0.9,0
					l2.3,2.1c0.3,0.2,0.3,0.7,0.1,0.9C4.3,0.7,4.1,0.7,3.9,0.7L3.9,0.7z"/>
			</g>
			<g id="Group_1770" transform="translate(0 9.587)">
				<path id="Path_2336" class="st0" d="M4.4,0.7C4.2,0.7,4,0.6,3.9,0.5L1.2-1.9C0.9-2.2,0.8-2.6,1.1-2.9C1.3-3.1,1.7-3.2,2-3
					c0,0,0,0,0,0l2.7,2.5c0.3,0.2,0.3,0.7,0,0.9C4.7,0.6,4.5,0.7,4.4,0.7L4.4,0.7z"/>
			</g>
			<g id="Group_1771" transform="translate(0 12.832)">
				<path id="Path_2337" class="st0" d="M4.8,0.7c-0.2,0-0.3-0.1-0.4-0.2L1.2-2.4C0.9-2.6,0.8-3,1.1-3.3C1.3-3.6,1.7-3.6,2-3.4
					c0,0,0,0,0,0l3.2,2.9c0.3,0.2,0.3,0.7,0.1,0.9C5.1,0.6,5,0.6,4.8,0.7L4.8,0.7z"/>
			</g>
		</g>
	</g>
	<g id="Group_1787" transform="translate(19.726 6.065)">
		<g id="Group_1774" transform="translate(6.003)">
			<path id="Path_2338" class="st0" d="M1.9,22.3c-0.4,0-0.7-0.3-0.7-0.7c0,0,0,0,0,0V3.1c0-0.4,0.3-0.7,0.6-0.7
				c0.4,0,0.7,0.3,0.7,0.6c0,0,0,0,0,0v18.5C2.6,22,2.3,22.3,1.9,22.3z"/>
		</g>
		<g id="Group_1780" transform="translate(0 2.84)">
			<g id="Group_1775" transform="translate(2.304)">
				<path id="Path_2339" class="st0" d="M2.4,4.5c-0.4,0-0.7-0.3-0.7-0.7c0-0.2,0.1-0.4,0.2-0.5l1.2-1.1C3.4,2,3.9,2,4.1,2.3
					c0.3,0.3,0.2,0.7,0,0.9c0,0,0,0,0,0L2.9,4.3C2.8,4.4,2.6,4.5,2.4,4.5z"/>
			</g>
			<g id="Group_1776" transform="translate(1.612 3.155)">
				<path id="Path_2340" class="st0" d="M2.5,4.6c-0.4,0-0.7-0.3-0.7-0.7c0-0.2,0.1-0.4,0.2-0.5l1.8-1.6c0.3-0.3,0.7-0.2,0.9,0
					c0.3,0.3,0.2,0.7,0,0.9c0,0,0,0,0,0L3,4.4C2.8,4.5,2.7,4.6,2.5,4.6z"/>
			</g>
			<g id="Group_1777" transform="translate(1.026 6.359)">
				<path id="Path_2341" class="st0" d="M2.6,4.6c-0.4,0-0.7-0.3-0.7-0.7c0-0.2,0.1-0.4,0.2-0.5l2.3-2.1c0.3-0.3,0.7-0.2,0.9,0
					c0.3,0.3,0.2,0.7,0,0.9c0,0,0,0,0,0L3,4.4C2.9,4.5,2.8,4.6,2.6,4.6z"/>
			</g>
			<g id="Group_1778" transform="translate(0.494 9.587)">
				<path id="Path_2342" class="st0" d="M2.7,4.6C2.3,4.6,2,4.3,2,3.9c0-0.2,0.1-0.4,0.2-0.5L5,0.9c0.3-0.3,0.7-0.2,0.9,0
					c0.3,0.3,0.2,0.7,0,0.9c0,0,0,0,0,0L3.1,4.4C3,4.5,2.8,4.6,2.7,4.6z"/>
			</g>
			<g id="Group_1779" transform="translate(0 12.832)">
				<path id="Path_2343" class="st0" d="M2.7,4.5c-0.4,0-0.7-0.3-0.7-0.7c0-0.2,0.1-0.4,0.2-0.5l3.2-2.9c0.3-0.3,0.7-0.2,0.9,0
					c0.3,0.3,0.2,0.7,0,0.9c0,0,0,0,0,0L3.2,4.3C3.1,4.4,2.9,4.5,2.7,4.5z"/>
			</g>
		</g>
		<g id="Group_1786" transform="translate(8.32 2.821)">
			<g id="Group_1781">
				<path id="Path_2344" class="st0" d="M2.8,4.5c-0.2,0-0.3-0.1-0.4-0.2L1.2,3.2C0.9,3,0.9,2.6,1.1,2.3S1.8,2,2,2.2l1.2,1.1
					c0.3,0.2,0.3,0.7,0,0.9C3.2,4.4,3,4.5,2.8,4.5L2.8,4.5z"/>
			</g>
			<g id="Group_1782" transform="translate(0 3.155)">
				<path id="Path_2345" class="st0" d="M3.4,4.6c-0.2,0-0.3-0.1-0.4-0.2L1.2,2.8C0.9,2.6,0.8,2.1,1.1,1.9C1.3,1.6,1.7,1.5,2,1.8
					c0,0,0,0,0,0l1.8,1.6c0.3,0.2,0.3,0.7,0.1,0.9C3.8,4.5,3.6,4.6,3.4,4.6L3.4,4.6z"/>
			</g>
			<g id="Group_1783" transform="translate(0 6.359)">
				<path id="Path_2346" class="st0" d="M3.9,4.6c-0.2,0-0.3-0.1-0.4-0.2L1.2,2.4c-0.3-0.2-0.3-0.7,0-0.9s0.7-0.3,0.9,0l2.3,2.1
					c0.3,0.2,0.3,0.7,0.1,0.9C4.3,4.5,4.1,4.6,3.9,4.6L3.9,4.6z"/>
			</g>
			<g id="Group_1784" transform="translate(0 9.587)">
				<path id="Path_2347" class="st0" d="M4.4,4.6C4.2,4.6,4,4.5,3.9,4.4L1.2,1.9C0.9,1.7,0.8,1.3,1.1,1C1.3,0.7,1.7,0.7,2,0.9
					c0,0,0,0,0,0l2.7,2.5c0.3,0.2,0.3,0.7,0.1,0.9C4.7,4.5,4.5,4.6,4.4,4.6L4.4,4.6z"/>
			</g>
			<g id="Group_1785" transform="translate(0 12.832)">
				<path id="Path_2348" class="st0" d="M4.8,4.5c-0.2,0-0.3-0.1-0.4-0.2L1.2,1.5C0.9,1.2,0.8,0.8,1.1,0.5C1.3,0.3,1.7,0.2,2,0.4
					c0,0,0,0,0,0l3.2,2.9c0.3,0.2,0.3,0.7,0,0.9C5.1,4.4,5,4.5,4.8,4.5L4.8,4.5z"/>
			</g>
		</g>
	</g>
</g>
</svg>
