<?xml version="1.0" encoding="utf-8"?>
<!-- Generator: Adobe Illustrator 25.2.0, SVG Export Plug-In . SVG Version: 6.00 Build 0)  -->
<svg version="1.1" id="Group_1966" xmlns="http://www.w3.org/2000/svg" xmlns:xlink="http://www.w3.org/1999/xlink" x="0px" y="0px"
	 viewBox="0 0 33.3 51.9" style="enable-background:new 0 0 33.3 51.9;" xml:space="preserve">
<style type="text/css">
	.st0{fill:#FFFFFF;}
</style>
<path id="Path_2488" class="st0" d="M16,1.4c0.4,0.5,0.5,0.7,0,1.1c0.1,0.1,0.3,0.2,0.3,0.4c0.1,0.3,0.2,0.3,0.5,0.4
	c1.1,0.2,1.9,1.2,1.8,2.3l-0.1,0c-0.1,0.2-0.2,0.3-0.2,0.5c0,0.6,0,1.1,0,1.7C22,9,24.6,12.2,25.2,16c0.5,0,0.8,0.4,0.9,0.9
	c0,0.4-0.2,0.7-0.9,1v8.5h-1.7v-6h-1.7v6H20v-6h-1.7v6h-1.7v-6h-1.7v6h-1.7v-6h-1.7v6H9.7v-6H8v6H6.3v-8.5c-0.7-0.2-0.9-0.5-0.9-1
	c0-0.4,0.3-0.7,0.8-0.8c0.3-1,0.7-2,1.1-3c1.1-2.4,3.1-4.2,5.6-5.1c0.2-0.1,0.3-0.2,0.3-0.4c0-0.5,0-1,0-1.5c0-0.2-0.1-0.3-0.2-0.4
	c-0.1-1,0.5-2,1.5-2.3c0.3-0.1,0.7-0.2,0.8-0.6c0-0.1,0.2-0.2,0.2-0.2c-0.4-0.5-0.4-0.7,0-1.2L16,1.4z M23.3,16
	c-0.1-1.1-0.5-2.2-1.2-3.1C20.9,11,19,9.6,16.7,9.2c-2.8-0.4-5,0.7-6.8,2.8c-1,1.1-1.6,2.5-1.8,3.9L23.3,16z M23.5,17.8H8v0.8h15.5
	V17.8z M16.6,7.4V5.7h-1.7v1.7H16.6z"/>
<path id="Path_2489" class="st0" d="M27.8,29c0,0.5,0,1,0,1.4c0,0.7-0.2,0.9-0.9,1.2v10.3h-1.7V31.6h-1.7v10.3h-1.7V31.6h-1.7v10.3
	h-1.7V31.6h-1.7v10.3h-1.7V31.6h-1.7v10.3h-1.7V31.6H9.7v10.3H8V31.6H6.3v10.3H4.5V31.6c-0.8-0.3-0.9-0.5-0.9-1.3c0-0.4,0-0.8,0-1.2
	c0,0,0-0.1,0-0.1c-0.1,0-0.2,0-0.3-0.1C3,28.8,2.7,28.4,2.7,28c0.1-0.4,0.4-0.8,0.9-0.7c0.5,0,1,0,1.5,0h22.2c0.1,0,0.3,0,0.4,0
	c0.4,0,0.8,0.3,0.9,0.7c0.1,0.4-0.2,0.8-0.6,1C27.9,29,27.9,29,27.8,29z M5.4,29.8H26V29H5.4L5.4,29.8z"/>
<path id="Path_2490" class="st0" d="M15.7,44.5c-4.3,0-8.6,0-12.8,0c-0.6,0-1-0.3-1-0.8c-0.1-0.5,0.3-0.9,0.7-0.9c0,0,0,0,0,0
	c0.1,0,0.2,0,0.3,0h25.4c0.1,0,0.3,0,0.4,0c0.5,0.1,0.8,0.5,0.7,1c0,0.4-0.4,0.7-0.7,0.7c-0.1,0-0.3,0-0.4,0L15.7,44.5z"/>
</svg>
