<svg xmlns="http://www.w3.org/2000/svg" width="67.573" height="43.744" viewBox="0 0 67.573 43.744">
  <g id="R9l59v" transform="translate(0 0)">
    <g id="Group_2031" data-name="Group 2031">
      <path id="Path_2531" data-name="Path 2531" d="M278.8,2879.954a4.224,4.224,0,0,1,.977-.27,14.785,14.785,0,0,0,14.37-14.04c.063-1.211.063-1.211,1.249-1.456,0-.6,0-1.212,0-1.825,0-.424.128-.764.615-.759s.617.337.613.765c-.005.612,0,1.226,0,1.829,1.164.213,1.164.213,1.214,1.312a14.754,14.754,0,0,0,29.432.783c.025-.285.06-.569.074-.854.048-1.061.071-1.089,1.215-1.206,0-.594.007-1.2,0-1.8-.006-.442.09-.824.617-.826s.617.392.613.827c-.005.591,0,1.181,0,1.759,1.186.235,1.186.235,1.244,1.391a14.767,14.767,0,0,0,14.378,14.09c.109,0,.255-.037.323.018.229.185.431.4.643.61-.218.2-.436.568-.653.567-.9,0-1.794-.115-2.691-.194-.234-.02-.466-.066-.735-.107v1.655c.961,0,1.919-.006,2.877,0,.493,0,1.156-.118,1.174.6.021.786-.671.654-1.182.655q-6.631.008-13.264,0h-.842v1.321h13.994l.593,0c.405,0,.712.162.718.595.005.468-.313.635-.748.634-.683,0-1.364,0-2.046,0H331.047v8c1,.353,1,.353,1,1.464,0,1.225,0,2.45,0,3.891a8.847,8.847,0,0,0,1.508-.73,3.523,3.523,0,0,1,4.851-.011,2.2,2.2,0,0,0,2.9.067c.366-.262.726-.415,1.027.007.29.406.06.733-.29,1.007a3.523,3.523,0,0,1-4.34-.046c-1.309-1.023-2.11-1.022-3.416,0a3.479,3.479,0,0,1-4.389,0c-1.313-1.023-2.123-1.023-3.416,0a3.48,3.48,0,0,1-4.388,0c-1.3-1.023-2.127-1.024-3.416,0a3.48,3.48,0,0,1-4.388,0c-1.3-1.023-2.138-1.024-3.415,0a3.49,3.49,0,0,1-4.337.042c-1.408-1.082-2.124-1.083-3.519,0a3.5,3.5,0,0,1-4.286,0c-1.412-1.083-2.113-1.083-3.519,0a3.5,3.5,0,0,1-4.287,0c-1.426-1.085-2.11-1.086-3.518,0a3.526,3.526,0,0,1-4.29.009c-.349-.274-.584-.6-.295-1.006s.659-.276,1.026-.013a2.206,2.206,0,0,0,2.953-.1,3.512,3.512,0,0,1,4.75.007,10.059,10.059,0,0,0,1.563.8c0-1.525,0-2.815,0-4.106,0-.987.032-1.022,1.009-1.228v-8.038h-.771c-4.509,0-9.019.01-13.529-.018a3.26,3.26,0,0,1-1.035-.388v-.528a4.586,4.586,0,0,1,1.1-.284c4.484-.02,8.968-.012,13.452-.012h.787v-1.321h-.816c-4.484,0-8.968.009-13.452-.015a3.74,3.74,0,0,1-1.071-.347v-.528a3.63,3.63,0,0,1,1-.354c1.019-.047,2.042-.017,3.075-.017v-1.594c-1.062.091-2.084.207-3.109.249a3.257,3.257,0,0,1-.966-.263Zm48.5,14.106v-7.967H297.869v7.992c.984.181,1,.2,1.005,1.156,0,.857-.009,1.716.007,2.573a.89.89,0,0,0,.152.534,2.326,2.326,0,0,0,3.307.326,3.483,3.483,0,0,1,4.888.008,2.116,2.116,0,0,0,2.842.026,3.668,3.668,0,0,1,5.018-.006,2.013,2.013,0,0,0,2.779.015,3.668,3.668,0,0,1,5.018-.023,2.148,2.148,0,0,0,2.847.01,1.231,1.231,0,0,0,.578-1.209c-.06-.7-.015-1.406-.014-2.11C326.3,2894.316,326.3,2894.316,327.294,2894.06Zm.035-10.512H297.873v1.208h29.455Zm-31.863-17.961v28.521h1.1v-28.521Zm34.248,28.519v-28.522h-1.1v28.522Zm-35.583-11.911v-10.833c-.5.863-.981,1.641-1.412,2.444a2.194,2.194,0,0,0-.29.968c-.025,2.26-.013,4.519-.013,6.779v.643Zm38.587,0c.019-.159.038-.244.038-.329q0-3.629,0-7.259a.836.836,0,0,0-.035-.39c-.541-.93-1.1-1.85-1.675-2.814V2882.2Zm-34.853-10.82v10.8h1.664a2.464,2.464,0,0,0,.04-.3q0-3.658,0-7.316a.923.923,0,0,0-.077-.447C298.968,2873.21,298.427,2872.319,297.864,2871.376Zm29.453,10.819V2871.33c-.508.875-.984,1.653-1.415,2.456a2.217,2.217,0,0,0-.29.972c-.025,2.262-.014,4.525-.011,6.788,0,.21.025.42.04.649Zm9.558-.007a17.4,17.4,0,0,1,.014-2.053,2.625,2.625,0,0,0-1.383-2.981,8.714,8.714,0,0,1-1.479-1.3v6.337Zm-45.737,0v-6.27c-.893.732-1.759,1.435-2.613,2.149a.582.582,0,0,0-.215.366c-.016,1.243-.01,2.487-.01,3.755Zm9.735-6.263v6.25h2.842c0-1.269.009-2.5-.011-3.721a.678.678,0,0,0-.258-.418C302.607,2877.336,301.755,2876.648,300.873,2875.928Zm23.413,6.253v-6.242c-.875.716-1.727,1.4-2.568,2.109a.669.669,0,0,0-.252.418c-.02,1.225-.011,2.451-.011,3.715Zm-26.672,13.257h-3.206v3.337a3.836,3.836,0,0,1,3.206-1.06Zm33.159,0h-3.216v2.293a3.82,3.82,0,0,1,3.216,1.034Zm-46.593-13.27h2.828v-3.1c-.876.354-1.706.677-2.522,1.035a.594.594,0,0,0-.293.422C284.158,2881.061,284.18,2881.6,284.18,2882.169Zm56.813.027c0-.6.011-1.138-.009-1.678a.486.486,0,0,0-.18-.373c-.868-.371-1.749-.713-2.645-1.072v3.123Zm-33.159,0c0-.593.015-1.115-.01-1.636-.007-.147-.092-.372-.2-.419-.872-.375-1.76-.716-2.64-1.066v3.121Zm12.372-3.133c-.9.361-1.748.69-2.585,1.049a.526.526,0,0,0-.27.369c-.03.561-.012,1.124-.012,1.694h2.868Zm-11.1,3.11h2.782v-1.235l-2.782-.341Zm6.946-1.587-2.8.366v1.239h2.8Z" transform="translate(-278.796 -2861.605)" fill="#fff"/>
      <path id="Path_2532" data-name="Path 2532" d="M340.488,2911a3.462,3.462,0,0,1-2.3-.836,2.266,2.266,0,0,0-3.263,0,3.462,3.462,0,0,1-4.539,0,2.273,2.273,0,0,0-3.264,0,3.461,3.461,0,0,1-4.538,0,2.273,2.273,0,0,0-3.264-.005,3.462,3.462,0,0,1-4.538.007,2.271,2.271,0,0,0-3.263-.009,3.462,3.462,0,0,1-4.538.01,2.273,2.273,0,0,0-3.264-.013,3.459,3.459,0,0,1-4.538.015,2.273,2.273,0,0,0-3.265-.017,3.461,3.461,0,0,1-4.539.02,2.283,2.283,0,0,0-3.317.018,3.5,3.5,0,0,1-4.386.07c-.345-.276-.578-.6-.272-1.006s.669-.25,1.029.011a2.2,2.2,0,0,0,2.9-.088,3.473,3.473,0,0,1,4.789,0,2.228,2.228,0,0,0,3.008.01,3.472,3.472,0,0,1,4.837.026,2.137,2.137,0,0,0,2.9.012,3.636,3.636,0,0,1,4.962.008,2.129,2.129,0,0,0,2.846.015c1.789-1.372,3.175-1.375,4.937-.01a2.233,2.233,0,0,0,2.91-.024,3.471,3.471,0,0,1,4.837-.028,2.233,2.233,0,0,0,3.009-.006,3.468,3.468,0,0,1,4.788,0,2.229,2.229,0,0,0,3.057-.034,3.466,3.466,0,0,1,4.689-.017,2.21,2.21,0,0,0,3,.108c.348-.248.689-.371.98.009a.622.622,0,0,1-.259,1c-.664.348-1.367.623-2.054.927Z" transform="translate(-279.353 -2867.429)" fill="#fff"/>
    </g>
  </g>
</svg>
