<?xml version="1.0" encoding="utf-8"?>
<!-- Generator: Adobe Illustrator 25.2.0, SVG Export Plug-In . SVG Version: 6.00 Build 0)  -->
<svg version="1.1" id="Layer_1" xmlns="http://www.w3.org/2000/svg" xmlns:xlink="http://www.w3.org/1999/xlink" x="0px" y="0px"
	 viewBox="0 0 57.3 37.5" style="enable-background:new 0 0 57.3 37.5;" xml:space="preserve">
<style type="text/css">
	.st0{fill:#FFFFFF;}
</style>
<g id="Group_2512" transform="translate(-4.102 -14.854)">
	<g id="Group_1981" transform="translate(4.102 14.854)">
		<g id="Group_1968" transform="translate(6.003)">
			<path id="Path_2491" class="st0" d="M5.5,33.5c-0.3,0-0.6-0.3-0.6-0.6c0,0,0,0,0,0V4.6C4.8,4.3,5.1,4,5.4,4
				c0.3,0,0.6,0.2,0.6,0.6c0,0,0,0,0,0v28.2C6.1,33.2,5.8,33.5,5.5,33.5z"/>
		</g>
		<g id="Group_1974" transform="translate(0 2.84)">
			<g id="Group_1969" transform="translate(2.304)">
				<path id="Path_2492" class="st0" d="M6.3,5.6C5.9,5.6,5.7,5.3,5.7,5c0-0.2,0.1-0.3,0.2-0.4l1.1-1c0.3-0.2,0.6-0.2,0.8,0.1
					C8,3.9,8,4.2,7.7,4.5l-1.1,1C6.5,5.5,6.4,5.6,6.3,5.6z"/>
			</g>
			<g id="Group_1970" transform="translate(1.611 3.155)">
				<path id="Path_2493" class="st0" d="M6.4,5.4c-0.3,0-0.6-0.3-0.6-0.6c0-0.2,0.1-0.3,0.2-0.4l1.6-1.5C7.9,2.7,8.3,2.7,8.5,3
					c0.2,0.2,0.2,0.6,0,0.8L6.8,5.2C6.7,5.3,6.6,5.4,6.4,5.4z"/>
			</g>
			<g id="Group_1971" transform="translate(1.026 6.359)">
				<path id="Path_2494" class="st0" d="M6.5,5.1c-0.3,0-0.6-0.3-0.6-0.6c0-0.2,0.1-0.3,0.2-0.4l2.1-1.9C8.5,2,8.8,2,9.1,2.2
					c0.2,0.2,0.2,0.6,0,0.8l0,0L6.9,5C6.8,5.1,6.7,5.1,6.5,5.1z"/>
			</g>
			<g id="Group_1972" transform="translate(0.493 9.587)">
				<path id="Path_2495" class="st0" d="M6.6,4.8C6.3,4.8,6,4.5,6,4.2C6,4,6.1,3.9,6.2,3.8l2.5-2.3c0.2-0.2,0.6-0.2,0.9,0
					s0.2,0.6,0,0.9L7.1,4.7C6.9,4.8,6.8,4.8,6.6,4.8z"/>
			</g>
			<g id="Group_1973" transform="translate(0 12.832)">
				<path id="Path_2496" class="st0" d="M6.8,4.5c-0.3,0-0.6-0.3-0.6-0.6c0-0.2,0.1-0.3,0.2-0.4l2.9-2.6c0.3-0.2,0.6-0.2,0.8,0.1
					c0.2,0.2,0.2,0.6,0,0.8L7.2,4.3C7,4.4,6.9,4.5,6.8,4.5z"/>
			</g>
		</g>
		<g id="Group_1980" transform="translate(8.32 2.821)">
			<g id="Group_1975">
				<path id="Path_2497" class="st0" d="M6,5.6c-0.1,0-0.3-0.1-0.4-0.2l-1.1-1c-0.2-0.2-0.3-0.6,0-0.9c0.2-0.2,0.6-0.3,0.9,0l1.1,1
					c0.2,0.2,0.3,0.6,0,0.8C6.4,5.5,6.2,5.6,6,5.6L6,5.6z"/>
			</g>
			<g id="Group_1976" transform="translate(0 3.155)">
				<path id="Path_2498" class="st0" d="M6.6,5.4c-0.1,0-0.3-0.1-0.4-0.2L4.6,3.8c-0.2-0.2-0.3-0.6,0-0.8c0.2-0.2,0.6-0.3,0.8,0l0,0
					L7,4.4C7.2,4.6,7.3,5,7,5.2C6.9,5.3,6.8,5.4,6.6,5.4L6.6,5.4z"/>
			</g>
			<g id="Group_1977" transform="translate(0 6.359)">
				<path id="Path_2499" class="st0" d="M7.1,5.1C6.9,5.1,6.8,5.1,6.6,5L4.6,3.1c-0.2-0.2-0.3-0.6,0-0.8C4.7,2,5.1,2,5.4,2.2
					l2.1,1.9c0.2,0.2,0.3,0.6,0,0.9C7.4,5.1,7.2,5.1,7.1,5.1L7.1,5.1z"/>
			</g>
			<g id="Group_1978" transform="translate(0 9.587)">
				<path id="Path_2500" class="st0" d="M7.5,4.8c-0.1,0-0.3-0.1-0.4-0.2L4.6,2.4c-0.2-0.2-0.3-0.6,0-0.9c0.2-0.2,0.6-0.3,0.9,0l0,0
					l2.5,2.3c0.2,0.2,0.3,0.6,0,0.9C7.8,4.7,7.6,4.8,7.5,4.8L7.5,4.8z"/>
			</g>
			<g id="Group_1979" transform="translate(0 12.832)">
				<path id="Path_2501" class="st0" d="M7.9,4.5c-0.1,0-0.3-0.1-0.4-0.2L4.6,1.7c-0.2-0.2-0.3-0.6,0-0.8c0.2-0.2,0.6-0.3,0.8,0l0,0
					l2.9,2.6c0.2,0.2,0.3,0.6,0,0.8C8.2,4.4,8,4.5,7.9,4.5L7.9,4.5z"/>
			</g>
		</g>
	</g>
	<g id="Group_1995" transform="translate(26.336 14.854)">
		<g id="Group_1982" transform="translate(6.004)">
			<path id="Path_2502" class="st0" d="M0.7,33.5c-0.3,0-0.6-0.3-0.6-0.6c0,0,0,0,0,0V4.6C0.1,4.3,0.3,4,0.7,4C1,4,1.3,4.2,1.3,4.6
				c0,0,0,0,0,0v28.2C1.3,33.2,1,33.5,0.7,33.5z"/>
		</g>
		<g id="Group_1988" transform="translate(0 2.84)">
			<g id="Group_1983" transform="translate(2.304)">
				<path id="Path_2503" class="st0" d="M1.5,5.6C1.2,5.6,0.9,5.3,0.9,5c0-0.2,0.1-0.3,0.2-0.4l1.1-1c0.2-0.2,0.6-0.2,0.9,0
					c0.2,0.2,0.2,0.6,0,0.9c0,0,0,0,0,0l-1.1,1C1.8,5.5,1.6,5.6,1.5,5.6z"/>
			</g>
			<g id="Group_1984" transform="translate(1.612 3.155)">
				<path id="Path_2504" class="st0" d="M1.6,5.4C1.3,5.4,1,5.1,1,4.8c0-0.2,0.1-0.3,0.2-0.4l1.6-1.5C3.1,2.7,3.5,2.7,3.7,3
					c0.2,0.2,0.2,0.6,0,0.8L2,5.2C1.9,5.3,1.8,5.4,1.6,5.4z"/>
			</g>
			<g id="Group_1985" transform="translate(1.026 6.359)">
				<path id="Path_2505" class="st0" d="M1.8,5.1c-0.3,0-0.6-0.3-0.6-0.6c0-0.2,0.1-0.3,0.2-0.4l2.1-1.9C3.7,2,4.1,2,4.3,2.2
					c0.2,0.2,0.2,0.6,0,0.8l0,0L2.2,5C2.1,5.1,1.9,5.1,1.8,5.1z"/>
			</g>
			<g id="Group_1986" transform="translate(0.494 9.587)">
				<path id="Path_2506" class="st0" d="M1.9,4.8c-0.3,0-0.6-0.3-0.6-0.6c0-0.2,0.1-0.3,0.2-0.4L4,1.5c0.2-0.2,0.6-0.2,0.9,0
					C5,1.8,5,2.2,4.8,2.4L2.3,4.7C2.2,4.8,2,4.8,1.9,4.8z"/>
			</g>
			<g id="Group_1987" transform="translate(0 12.832)">
				<path id="Path_2507" class="st0" d="M2,4.5c-0.3,0-0.6-0.3-0.6-0.6c0-0.2,0.1-0.3,0.2-0.4l2.9-2.6c0.3-0.2,0.6-0.2,0.8,0.1
					c0.2,0.2,0.2,0.6,0,0.8L2.4,4.3C2.3,4.4,2.1,4.5,2,4.5z"/>
			</g>
		</g>
		<g id="Group_1994" transform="translate(8.321 2.821)">
			<g id="Group_1989">
				<path id="Path_2508" class="st0" d="M1.3,5.6C1.1,5.6,1,5.5,0.9,5.4l-1.1-1c-0.2-0.2-0.3-0.6,0-0.9s0.6-0.3,0.9,0l1.1,1
					c0.2,0.2,0.3,0.6,0,0.8C1.6,5.5,1.4,5.6,1.3,5.6L1.3,5.6z"/>
			</g>
			<g id="Group_1990" transform="translate(0 3.155)">
				<path id="Path_2509" class="st0" d="M1.8,5.4c-0.1,0-0.3-0.1-0.4-0.2l-1.6-1.5c-0.2-0.2-0.3-0.6,0-0.8s0.6-0.3,0.8,0l0,0
					l1.6,1.5c0.2,0.2,0.3,0.6,0,0.9C2.2,5.3,2,5.4,1.8,5.4L1.8,5.4z"/>
			</g>
			<g id="Group_1991" transform="translate(0 6.359)">
				<path id="Path_2510" class="st0" d="M2.3,5.1C2.1,5.1,2,5.1,1.9,5l-2.1-1.9c-0.2-0.2-0.3-0.6,0-0.8s0.6-0.3,0.8,0l2.1,1.9
					c0.2,0.2,0.3,0.6,0,0.9C2.6,5.1,2.4,5.1,2.3,5.1L2.3,5.1z"/>
			</g>
			<g id="Group_1992" transform="translate(0 9.587)">
				<path id="Path_2511" class="st0" d="M2.7,4.8c-0.1,0-0.3-0.1-0.4-0.2l-2.5-2.3c-0.2-0.2-0.3-0.6,0-0.9s0.6-0.3,0.9,0l0,0
					l2.5,2.3c0.2,0.2,0.3,0.6,0,0.8C3,4.7,2.9,4.8,2.7,4.8L2.7,4.8z"/>
			</g>
			<g id="Group_1993" transform="translate(0 12.832)">
				<path id="Path_2512" class="st0" d="M3.1,4.5c-0.1,0-0.3-0.1-0.4-0.2l-2.9-2.6c-0.2-0.2-0.3-0.6,0-0.8s0.6-0.3,0.8,0l0,0
					l2.9,2.6c0.2,0.2,0.3,0.6,0,0.8C3.4,4.4,3.3,4.5,3.1,4.5L3.1,4.5z"/>
			</g>
		</g>
	</g>
	<g id="Group_2009" transform="translate(47.896 14.854)">
		<g id="Group_1996" transform="translate(6.004)">
			<path id="Path_2513" class="st0" d="M-3.9,33.5c-0.3,0-0.6-0.3-0.6-0.6c0,0,0,0,0,0V4.6C-4.5,4.3-4.3,4-4,4
				c0.3,0,0.6,0.2,0.6,0.6c0,0,0,0,0,0v28.2C-3.3,33.2-3.6,33.5-3.9,33.5z"/>
		</g>
		<g id="Group_2002" transform="translate(0 2.84)">
			<g id="Group_1997" transform="translate(2.304)">
				<path id="Path_2514" class="st0" d="M-3.1,5.6c-0.3,0-0.6-0.3-0.6-0.6c0-0.2,0.1-0.3,0.2-0.4l1.1-1c0.2-0.2,0.6-0.2,0.9,0
					s0.2,0.6,0,0.9l0,0l-1.1,1C-2.8,5.5-3,5.6-3.1,5.6z"/>
			</g>
			<g id="Group_1998" transform="translate(1.612 3.155)">
				<path id="Path_2515" class="st0" d="M-3,5.4c-0.3,0-0.6-0.3-0.6-0.6c0-0.2,0.1-0.3,0.2-0.4l1.6-1.5c0.2-0.2,0.6-0.2,0.9,0
					s0.2,0.6,0,0.9l0,0l-1.6,1.5C-2.7,5.3-2.8,5.4-3,5.4z"/>
			</g>
			<g id="Group_1999" transform="translate(1.026 6.359)">
				<path id="Path_2516" class="st0" d="M-2.9,5.1c-0.3,0-0.6-0.3-0.6-0.6c0-0.2,0.1-0.3,0.2-0.4l2.1-1.9C-0.9,2-0.6,2-0.3,2.3
					c0.2,0.2,0.2,0.6,0,0.8L-2.5,5C-2.6,5.1-2.7,5.1-2.9,5.1z"/>
			</g>
			<g id="Group_2000" transform="translate(0.494 9.587)">
				<path id="Path_2517" class="st0" d="M-2.7,4.8c-0.3,0-0.6-0.3-0.6-0.6c0-0.2,0.1-0.3,0.2-0.4l2.5-2.3c0.2-0.2,0.6-0.2,0.9,0
					s0.2,0.6,0,0.9l0,0l-2.5,2.3C-2.5,4.8-2.6,4.8-2.7,4.8z"/>
			</g>
			<g id="Group_2001" transform="translate(0 12.832)">
				<path id="Path_2518" class="st0" d="M-2.6,4.5c-0.3,0-0.6-0.3-0.6-0.6c0-0.2,0.1-0.3,0.2-0.4l2.9-2.6c0.2-0.2,0.6-0.2,0.9,0
					s0.2,0.6,0,0.9l-2.9,2.6C-2.4,4.4-2.5,4.5-2.6,4.5z"/>
			</g>
		</g>
		<g id="Group_2008" transform="translate(8.321 2.821)">
			<g id="Group_2003">
				<path id="Path_2519" class="st0" d="M-3.3,5.6c-0.1,0-0.3-0.1-0.4-0.2l-1.1-1c-0.2-0.2-0.3-0.6,0-0.9c0.2-0.2,0.6-0.3,0.9,0
					l1.1,1c0.2,0.2,0.3,0.6,0,0.8C-3,5.5-3.2,5.6-3.3,5.6L-3.3,5.6z"/>
			</g>
			<g id="Group_2004" transform="translate(0 3.155)">
				<path id="Path_2520" class="st0" d="M-2.8,5.4c-0.1,0-0.3-0.1-0.4-0.2l-1.6-1.5c-0.2-0.2-0.3-0.6,0-0.8c0.2-0.2,0.6-0.3,0.8,0
					l0,0l1.6,1.5c0.2,0.2,0.3,0.6,0,0.9C-2.5,5.3-2.6,5.4-2.8,5.4L-2.8,5.4z"/>
			</g>
			<g id="Group_2005" transform="translate(0 6.359)">
				<path id="Path_2521" class="st0" d="M-2.3,5.1c-0.1,0-0.3-0.1-0.4-0.2l-2.1-1.9c-0.2-0.2-0.3-0.6,0-0.8C-4.7,2-4.3,2-4,2.2l0,0
					l2.1,1.9c0.2,0.2,0.3,0.6,0,0.9C-2,5.1-2.2,5.1-2.3,5.1L-2.3,5.1z"/>
			</g>
			<g id="Group_2006" transform="translate(0 9.587)">
				<path id="Path_2522" class="st0" d="M-1.9,4.8c-0.1,0-0.3-0.1-0.4-0.2l-2.5-2.3c-0.2-0.2-0.3-0.6,0-0.9c0.2-0.2,0.6-0.3,0.9,0
					l0,0l2.5,2.3c0.2,0.2,0.3,0.6,0,0.9C-1.6,4.7-1.8,4.8-1.9,4.8L-1.9,4.8z"/>
			</g>
			<g id="Group_2007" transform="translate(0 12.832)">
				<path id="Path_2523" class="st0" d="M-1.5,4.5c-0.1,0-0.3-0.1-0.4-0.2l-2.9-2.6c-0.2-0.2-0.3-0.6,0-0.8c0.2-0.2,0.6-0.3,0.8,0
					l0,0l2.9,2.6c0.2,0.2,0.3,0.6,0,0.8C-1.2,4.4-1.4,4.5-1.5,4.5L-1.5,4.5z"/>
			</g>
		</g>
	</g>
</g>
</svg>
