<?xml version="1.0" encoding="utf-8"?>
<!-- Generator: Adobe Illustrator 25.2.0, SVG Export Plug-In . SVG Version: 6.00 Build 0)  -->
<svg version="1.1" id="Layer_1" xmlns="http://www.w3.org/2000/svg" xmlns:xlink="http://www.w3.org/1999/xlink" x="0px" y="0px"
	 viewBox="0 0 52.6 45.3" style="enable-background:new 0 0 52.6 45.3;" xml:space="preserve">
<style type="text/css">
	.st0{fill:#FFFFFF;}
</style>
<g id="Group_2029" transform="translate(0 0)">
	<g id="Group_2011" transform="translate(18.516 9.639)">
		<path id="Path_2524" class="st0" d="M17.3,22.2H-2.6V2.3h19.9L17.3,22.2z M-1.4,21h17.5V3.5H-1.4V21z"/>
	</g>
	<g id="Group_2012" transform="translate(23.981 15.105)">
		<path id="Path_2525" class="st0" d="M7.5,12.4H-3.8V1.2H7.5V12.4z M-2.5,11.2h8.8V2.4h-8.8L-2.5,11.2z"/>
	</g>
	<g id="Group_2013" transform="translate(30.262 2.797)">
		<rect id="Rectangle_1817" x="-5" y="3.7" class="st0" width="1.2" height="6.1"/>
	</g>
	<g id="Group_2014" transform="translate(36.544 2.03)">
		<path id="Path_2526" class="st0" d="M-5.1,10.5h-1.2V3.9h8.9v1.2h-7.7L-5.1,10.5z"/>
	</g>
	<g id="Group_2015" transform="translate(42.776 15.104)">
		<rect id="Rectangle_1818" x="-7.6" y="1.2" class="st0" width="4" height="1.2"/>
	</g>
	<g id="Group_2016" transform="translate(42.543 21.691)">
		<rect id="Rectangle_1819" x="-7.5" y="-0.1" class="st0" width="4.2" height="1.2"/>
	</g>
	<g id="Group_2017" transform="translate(42.776 28.448)">
		<path id="Path_2527" class="st0" d="M-3,8.2h-1.2v-8.5h-3.4v-1.2H-3L-3,8.2z"/>
	</g>
	<g id="Group_2018" transform="translate(13.679 21.705)">
		<rect id="Rectangle_1820" x="-1.7" y="-0.1" class="st0" width="4.5" height="1.2"/>
	</g>
	<g id="Group_2019" transform="translate(4.828 16.2)">
		<rect id="Rectangle_1821" x="0.1" y="1" class="st0" width="11.5" height="1.2"/>
	</g>
	<g id="Group_2020" transform="translate(30.262 33.899)">
		<rect id="Rectangle_1822" x="-5" y="-2.6" class="st0" width="1.2" height="6.7"/>
	</g>
	<g id="Group_2021" transform="translate(47.009)">
		<path id="Path_2528" class="st0" d="M-6.2,8.7c-1.2,0-2.2-1-2.2-2.2s1-2.2,2.2-2.2S-4,5.3-4,6.5S-5,8.7-6.2,8.7L-6.2,8.7z
			 M-6.2,5.5c-0.6,0-1,0.5-1,1c0,0.6,0.5,1,1,1c0.6,0,1-0.5,1-1l0,0C-5.2,5.9-5.7,5.5-6.2,5.5L-6.2,5.5z"/>
	</g>
	<g id="Group_2022" transform="translate(44.978 39.711)">
		<path id="Path_2529" class="st0" d="M-5.8,0.6C-7,0.6-8-0.4-8-1.6s1-2.2,2.2-2.2s2.2,1,2.2,2.2S-4.6,0.6-5.8,0.6L-5.8,0.6z
			 M-5.8-2.6c-0.6,0-1,0.5-1,1c0,0.6,0.5,1,1,1c0.6,0,1-0.5,1-1l0,0C-4.8-2.1-5.2-2.6-5.8-2.6L-5.8-2.6z"/>
	</g>
	<g id="Group_2023" transform="translate(0 14.169)">
		<path id="Path_2530" class="st0" d="M3.4,5.8c-1.2,0-2.2-1-2.2-2.2s1-2.2,2.2-2.2s2.2,1,2.2,2.2S4.6,5.8,3.4,5.8L3.4,5.8z
			 M3.4,2.6c-0.6,0-1,0.5-1,1c0,0.6,0.5,1,1,1c0.6,0,1-0.5,1-1C4.4,3.1,3.9,2.6,3.4,2.6z"/>
	</g>
	<g id="Group_2024" transform="translate(29.49 0.508)">
		<circle id="Ellipse_135" class="st0" cx="-3.6" cy="5.4" r="1.2"/>
	</g>
	<g id="Group_2025" transform="translate(29.49 40.97)">
		<circle id="Ellipse_136" class="st0" cx="-3.6" cy="-2.8" r="1.2"/>
	</g>
	<g id="Group_2026" transform="translate(46.237 14.332)">
		<circle id="Ellipse_137" class="st0" cx="-7.1" cy="2.6" r="1.2"/>
	</g>
	<g id="Group_2027" transform="translate(46.237 20.933)">
		<circle id="Ellipse_138" class="st0" cx="-7.1" cy="1.2" r="1.2"/>
	</g>
	<g id="Group_2028" transform="translate(12.14 21.006)">
		<circle id="Ellipse_139" class="st0" cx="-0.1" cy="1.2" r="1.2"/>
	</g>
</g>
</svg>
