<?xml version="1.0" encoding="utf-8"?>
<!-- Generator: Adobe Illustrator 25.2.0, SVG Export Plug-In . SVG Version: 6.00 Build 0)  -->
<svg version="1.1" id="Layer_1" xmlns="http://www.w3.org/2000/svg" xmlns:xlink="http://www.w3.org/1999/xlink" x="0px" y="0px"
	 viewBox="0 0 55 55" style="enable-background:new 0 0 55 55;" xml:space="preserve">
<style type="text/css">
	.st0{fill:#FFFFFF;}
</style>
<g>
	<path class="st0" d="M32.7,31.4c-1.1,1.9-3.2,3.2-5.6,2.9c-2.9-0.3-5.2-2.7-5.3-5.6c-0.1-2,0.9-3.7,2.3-4.8l-1.5-1.8
		c-2.2,1.7-3.5,4.6-3.1,7.7c0.5,3.6,3.4,6.4,7,6.9c4,0.5,7.5-1.8,8.8-5.2L32.7,31.4z"/>
	<path class="st0" d="M28.8,25.3l-2,1.8l-7-7.7l2-1.8L28.8,25.3z M38.7,30l0,2.8l-10.3,0l0-2.8L38.7,30z M20.9,16.8l-2,1.8l-1.8-2
		l2-1.8L20.9,16.8z M27.6,39c2.2,0,4.1,1.2,5.1,2.7h2.6c-1.1-2.8-4.1-5.1-7.7-5.1c-3.5,0-6.5,2.2-7.7,5.8h2.6
		C23.5,40.1,25.4,39,27.6,39z"/>
</g>
</svg>
