<?xml version="1.0" encoding="utf-8"?>
<!-- Generator: Adobe Illustrator 25.2.0, SVG Export Plug-In . SVG Version: 6.00 Build 0)  -->
<svg version="1.1" id="Layer_1" xmlns="http://www.w3.org/2000/svg" xmlns:xlink="http://www.w3.org/1999/xlink" x="0px" y="0px"
	 viewBox="0 0 55 55" style="enable-background:new 0 0 55 55;" xml:space="preserve">
<style type="text/css">
	.st0{fill:#FFFFFF;}
</style>
<path class="st0" d="M43.9,27.5c0-1.9-1.6-3.5-3.5-3.5c-1.9,0-3.5,1.6-3.5,3.5c0,1.6,1.1,3,2.6,3.4v4.6c0,3.4-2.8,6.2-6.2,6.2
	c-3.4,0-6.2-2.8-6.2-6.2V32c4.2-0.5,7.5-4,7.5-8.3v-6.3c0.8-0.2,1.4-1,1.4-1.9c0-1.1-0.9-1.9-1.9-1.9c-1.1,0-1.9,0.9-1.9,1.9h0v8.2
	c0,3.3-2.7,5.9-5.9,5.9s-5.9-2.7-5.9-5.9v-8c0,0,0-0.1,0-0.1c0-1.1-0.9-1.9-1.9-1.9c-1.1,0-1.9,0.9-1.9,1.9c0,0.9,0.6,1.6,1.4,1.9
	v6.3c0,4.3,3.3,7.9,7.5,8.3v3.5c0,4.5,3.6,8.1,8.1,8.1c4.5,0,8.1-3.6,8.1-8.1v-4.6C42.8,30.5,43.9,29.2,43.9,27.5z M40.4,28.6
	c-0.6,0-1-0.5-1-1s0.5-1,1-1c0.6,0,1,0.5,1,1S41,28.6,40.4,28.6z"/>
<rect x="14.4" y="32.8" class="st0" width="3.1" height="8.9"/>
<rect x="14.4" y="32.8" transform="matrix(6.123234e-17 -1 1 6.123234e-17 -21.2166 53.1836)" class="st0" width="3.1" height="8.9"/>
</svg>
