<?xml version="1.0" encoding="utf-8"?>
<!-- Generator: Adobe Illustrator 25.2.0, SVG Export Plug-In . SVG Version: 6.00 Build 0)  -->
<svg version="1.1" id="Layer_1" xmlns="http://www.w3.org/2000/svg" xmlns:xlink="http://www.w3.org/1999/xlink" x="0px" y="0px"
	 viewBox="0 0 70 70" style="enable-background:new 0 0 70 70;" xml:space="preserve">
<style type="text/css">
	.st0{fill:#FFFFFF;}
</style>
<g>
	<g>
		<path class="st0" d="M33.5,29L33.5,29l-0.1,1.7h0.1c0.5,0,0.8-0.3,0.8-0.8C34.3,29.3,34,29,33.5,29z"/>
		<path class="st0" d="M37.5,30.4H38c0,0-0.3-1.2-0.3-1.4L37.5,30.4z"/>
		<path class="st0" d="M49.2,23.8c-0.3-0.1-6.2-3-13.7-3s-13.5,2.9-13.7,3c-1,0.5-1.5,1.3-1.5,2.2v8.9h30.5V26
			C50.8,25.1,50.2,24.3,49.2,23.8z M26.9,28.3v2.1c0,1.6-1.6,1.6-2,1.6c-0.1,0-1.6,0-1.6-1.3v-2.2c0-0.4,0.1-0.3-0.1-0.4l-0.4-0.1
			c0,0-0.1-0.1,0.1-0.1c0.3,0,0.8,0.1,1.9,0c0,0,0.1,0,0,0.1l-0.3,0.1c-0.3,0.1-0.2,0-0.2,0.3v2.2c0,0.5,0.3,1.2,1.1,1.2
			c1.2,0,1.2-1,1.2-1.2v-2.1c0-0.2,0-0.1-0.2-0.2L26,27.9c-0.1-0.1,0-0.1,0-0.1s0.4,0.1,1.3,0c0,0,0.1,0,0,0.1l-0.3,0.1
			C26.9,28.1,26.9,28.1,26.9,28.3z M31.3,31c-0.1,0.5-0.1,0.6-0.1,0.6c-0.5,0.2-1,0.3-1.6,0.3c-1.6,0-2.2-1-2.2-1.9
			c0-1.6,1-2.4,2.6-2.3c0.4,0,0.8,0.1,1.2,0.2l0.1,0.7c0,0.1,0.1,0.5,0,0.5c-0.1,0-0.1-0.2-0.2-0.3c0-0.1-0.1-0.4-0.2-0.5
			c-0.2-0.1-0.6-0.3-0.9-0.3c-0.9,0-1.5,0.7-1.5,1.9c0,0.8,0.4,1.9,1.4,1.9c0.3,0,1.1-0.1,1.2-0.6c0.1-0.2,0.1-0.5,0.2-0.4
			C31.4,30.7,31.3,30.9,31.3,31z M33.8,31.9H32v-4h1.4c1.3,0,2.3,0.6,2.3,2.1C35.8,31.1,35,31.9,33.8,31.9z M38.5,31.9l-0.1-0.5
			h-1.1l-0.1,0.5h-1.5l1.3-4h1.6l1.4,4H38.5z M41.7,31.9h-1.2l-1.5-4h1.4l0.6,2.5l0.6-2.5h1.4L41.7,31.9z M44.8,31.9h-1.4v-4h1.4
			V31.9z M46.6,31.9c-0.5,0-1-0.1-1.5-0.3l0.4-1.1l0.1,0.1c0.3,0.2,0.6,0.4,0.9,0.4s0.4-0.1,0.4-0.3c0-0.2-0.2-0.2-0.3-0.2l-0.3-0.1
			c-0.5-0.1-1-0.4-1-1.1c0-1,0.8-1.5,1.6-1.5c0.4,0,0.8,0.1,1.2,0.3l-0.3,1c-0.2-0.1-0.5-0.3-0.9-0.3c-0.1,0-0.4,0.1-0.3,0.3
			c0.1,0.1,0.2,0.2,0.3,0.2l0.3,0.1c0.6,0.1,1,0.5,1,1.2C48.3,31.4,47.4,31.9,46.6,31.9z"/>
	</g>
	<rect x="19" y="36.3" class="st0" width="32.9" height="2.1"/>
	<rect x="33.4" y="19" class="st0" width="4.2" height="1.2"/>
</g>
<path class="st0" d="M48.5,40H36.5h-2.1H22.4h-2.1v21.4c0.7,0.5,1.4,0.9,2.1,1.3V42.9c2.5,1.6,6.9,2.7,12.1,2.8v20.4
	c0.2,0,0.5,0,0.7,0c0.5,0,0.9,0,1.4,0V45.7c5.1-0.1,9.5-1.2,11.9-2.7v19.4c0.7-0.4,1.4-0.9,2.1-1.4V40.8c0.1-0.3,0.1-0.5,0.1-0.8
	h-0.1H48.5z"/>
</svg>
