<svg id="Group_1893" data-name="Group 1893" xmlns="http://www.w3.org/2000/svg" width="76.517" height="69.749" viewBox="0 0 76.517 69.749">
  <circle id="Ellipse_130" data-name="Ellipse 130" cx="32.765" cy="32.765" r="32.765" transform="translate(4.13 3.453)" fill="#022851"/>
  <g id="Group_1892" data-name="Group 1892">
    <g id="Group_1814" data-name="Group 1814" transform="translate(11.74 0.021)">
      <path id="Path_2367" data-name="Path 2367" d="M686.983,2914.117a.752.752,0,0,1-.241-.039.766.766,0,0,1-.487-.969l5.2-15.724,2.106-4.879,5.264.753c-.269-2.5-.935-9.3-.935-15.732,0-6.12-8.079-8.741-10.838-9.457l-.022,1.821-1.6,6.439v6.911l-1.488,1.619-.008,10.1-1.126,7.548-3.774,1.23-4.84,4.141h-3.982a.767.767,0,1,1,0-1.533h3.416l4.641-3.971,3.163-1.031.977-6.553v-10.532l1.488-1.619.023-6.591,1.6-6.439v-3.437l.909.173c.531.1,13,2.565,13,11.177a159.819,159.819,0,0,0,1.035,16.538l.121.993-6.077-.868-1.617,3.741-5.18,15.66A.766.766,0,0,1,686.983,2914.117Z" transform="translate(-669.452 -2866.177)" fill="#fff"/>
    </g>
    <g id="Group_1815" data-name="Group 1815" transform="translate(28.968)">
      <path id="Path_2368" data-name="Path 2368" d="M720.153,2901.4a.766.766,0,0,1-.713-.486c-.067-.172-6.818-17.317-10.812-26.332-3.772-8.513-18.478-6.737-18.625-6.718a.767.767,0,0,1-.2-1.521,33.89,33.89,0,0,1,8.405.161c5.964.892,10.051,3.47,11.817,7.457,4.007,9.044,10.769,26.218,10.836,26.39a.766.766,0,0,1-.432.994A.757.757,0,0,1,720.153,2901.4Z" transform="translate(-689.139 -2866.154)" fill="#fff"/>
    </g>
    <g id="Group_1816" data-name="Group 1816" transform="translate(41.916 27.35)">
      <path id="Path_2369" data-name="Path 2369" d="M737.769,2913.972a.759.759,0,0,1-.368-.1l-19.313-10.62-3.786.712-4.8-4.263-4.922-.775a.766.766,0,1,1,.238-1.514l5.368.844,4.57,4.062,3.586-.675,19.794,10.885a.767.767,0,0,1-.37,1.438Z" transform="translate(-703.935 -2897.408)" fill="#fff"/>
    </g>
    <g id="Group_1817" data-name="Group 1817" transform="translate(33.708 30.703)">
      <path id="Path_2370" data-name="Path 2370" d="M724.457,2914.451a.764.764,0,0,1-.354-.088l-9.253-4.846-6.609,1.277-13.318-8.133a.767.767,0,0,1,.8-1.308l12.811,7.823,6.554-1.266,9.726,5.1a.767.767,0,0,1-.356,1.447Z" transform="translate(-694.556 -2901.24)" fill="#fff"/>
    </g>
    <g id="Group_1818" data-name="Group 1818" transform="translate(36.02 8.157)">
      <path id="Path_2371" data-name="Path 2371" d="M699.066,2892.738a.766.766,0,0,1-.767-.766v-9.379l-1.1-1.734v-4.617a.767.767,0,0,1,1.533,0v4.171l1.1,1.735v9.825A.766.766,0,0,1,699.066,2892.738Z" transform="translate(-697.198 -2875.475)" fill="#fff"/>
    </g>
    <g id="Group_1819" data-name="Group 1819" transform="translate(33.707 6.346)">
      <path id="Path_2372" data-name="Path 2372" d="M695.322,2890.74a.768.768,0,0,1-.767-.767v-15.8a.767.767,0,0,1,1.534,0v15.8A.768.768,0,0,1,695.322,2890.74Z" transform="translate(-694.555 -2873.406)" fill="#fff"/>
    </g>
    <g id="Group_1820" data-name="Group 1820" transform="translate(29.545 3.88)">
      <path id="Path_2373" data-name="Path 2373" d="M690.566,2898.481a.766.766,0,0,1-.766-.767v-19.825l1.271-2.446v-4.09a.767.767,0,1,1,1.533,0v4.465l-1.272,2.447v19.449A.766.766,0,0,1,690.566,2898.481Z" transform="translate(-689.799 -2870.587)" fill="#fff"/>
    </g>
    <g id="Group_1821" data-name="Group 1821" transform="translate(10.468 10.122)">
      <path id="Path_2374" data-name="Path 2374" d="M668.765,2901.8a.767.767,0,0,1-.473-1.37l4.029-3.157,1.461-11.849,2.622-1.587,2.226-3.986,4.866-2.069a.767.767,0,1,1,.6,1.412l-4.383,1.863-2.168,3.882-2.332,1.412-1.447,11.738-4.528,3.548A.759.759,0,0,1,668.765,2901.8Z" transform="translate(-667.998 -2877.721)" fill="#fff"/>
    </g>
    <g id="Group_1835" data-name="Group 1835" transform="translate(0 40.805)">
      <g id="Group_1822" data-name="Group 1822" transform="translate(6.003)">
        <path id="Path_2375" data-name="Path 2375" d="M663.663,2935.752a.767.767,0,0,1-.767-.766v-21.435a.767.767,0,0,1,1.534,0v21.435A.767.767,0,0,1,663.663,2935.752Z" transform="translate(-662.896 -2912.784)" fill="#fff"/>
      </g>
      <g id="Group_1828" data-name="Group 1828" transform="translate(0 2.84)">
        <g id="Group_1823" data-name="Group 1823" transform="translate(2.304)">
          <path id="Path_2376" data-name="Path 2376" d="M659.436,2918.8a.766.766,0,0,1-.514-1.336l1.375-1.238a.767.767,0,1,1,1.026,1.139l-1.375,1.238A.763.763,0,0,1,659.436,2918.8Z" transform="translate(-658.669 -2916.029)" fill="#fff"/>
        </g>
        <g id="Group_1824" data-name="Group 1824" transform="translate(1.611 3.155)">
          <path id="Path_2377" data-name="Path 2377" d="M658.644,2923.031a.766.766,0,0,1-.514-1.336l2.067-1.862a.767.767,0,1,1,1.026,1.139l-2.067,1.862A.766.766,0,0,1,658.644,2923.031Z" transform="translate(-657.877 -2919.635)" fill="#fff"/>
        </g>
        <g id="Group_1825" data-name="Group 1825" transform="translate(1.026 6.359)">
          <path id="Path_2378" data-name="Path 2378" d="M657.975,2927.219a.767.767,0,0,1-.514-1.336l2.652-2.39a.767.767,0,1,1,1.026,1.139l-2.652,2.39A.764.764,0,0,1,657.975,2927.219Z" transform="translate(-657.208 -2923.296)" fill="#fff"/>
        </g>
        <g id="Group_1826" data-name="Group 1826" transform="translate(0.494 9.587)">
          <path id="Path_2379" data-name="Path 2379" d="M657.367,2931.386a.766.766,0,0,1-.514-1.336l3.185-2.869a.767.767,0,1,1,1.026,1.139l-3.185,2.868A.762.762,0,0,1,657.367,2931.386Z" transform="translate(-656.6 -2926.985)" fill="#fff"/>
        </g>
        <g id="Group_1827" data-name="Group 1827" transform="translate(0 12.832)">
          <path id="Path_2380" data-name="Path 2380" d="M656.8,2935.54a.767.767,0,0,1-.514-1.336l3.679-3.313a.766.766,0,1,1,1.026,1.138l-3.679,3.314A.762.762,0,0,1,656.8,2935.54Z" transform="translate(-656.036 -2930.693)" fill="#fff"/>
        </g>
      </g>
      <g id="Group_1834" data-name="Group 1834" transform="translate(8.32 2.821)">
        <g id="Group_1829" data-name="Group 1829">
          <path id="Path_2381" data-name="Path 2381" d="M667.684,2918.779a.765.765,0,0,1-.513-.2l-1.375-1.238a.766.766,0,1,1,1.026-1.138l1.375,1.238a.766.766,0,0,1-.514,1.336Z" transform="translate(-665.544 -2916.007)" fill="#fff"/>
        </g>
        <g id="Group_1830" data-name="Group 1830" transform="translate(0 3.156)">
          <path id="Path_2382" data-name="Path 2382" d="M668.378,2923.008a.764.764,0,0,1-.513-.2l-2.068-1.861a.767.767,0,0,1,1.026-1.141l2.068,1.862a.766.766,0,0,1-.514,1.336Z" transform="translate(-665.544 -2919.614)" fill="#fff"/>
        </g>
        <g id="Group_1831" data-name="Group 1831" transform="translate(0 6.359)">
          <path id="Path_2383" data-name="Path 2383" d="M668.963,2927.2a.763.763,0,0,1-.513-.2l-2.653-2.39a.766.766,0,1,1,1.026-1.138l2.653,2.389a.766.766,0,0,1-.514,1.336Z" transform="translate(-665.544 -2923.275)" fill="#fff"/>
        </g>
        <g id="Group_1832" data-name="Group 1832" transform="translate(0 9.587)">
          <path id="Path_2384" data-name="Path 2384" d="M669.495,2931.365a.765.765,0,0,1-.513-.2L665.8,2928.3a.767.767,0,0,1,1.026-1.139l3.185,2.87a.766.766,0,0,1-.514,1.336Z" transform="translate(-665.544 -2926.963)" fill="#fff"/>
        </g>
        <g id="Group_1833" data-name="Group 1833" transform="translate(0 12.832)">
          <path id="Path_2385" data-name="Path 2385" d="M669.989,2935.518a.767.767,0,0,1-.513-.2l-3.679-3.314a.766.766,0,1,1,1.026-1.138l3.679,3.313a.766.766,0,0,1-.514,1.336Z" transform="translate(-665.544 -2930.671)" fill="#fff"/>
        </g>
      </g>
    </g>
    <g id="Group_1849" data-name="Group 1849" transform="translate(16.095 43.793)">
      <g id="Group_1836" data-name="Group 1836" transform="translate(6.003)">
        <path id="Path_2386" data-name="Path 2386" d="M682.056,2939.166a.767.767,0,0,1-.767-.767v-21.434a.767.767,0,0,1,1.534,0V2938.4A.767.767,0,0,1,682.056,2939.166Z" transform="translate(-681.289 -2916.199)" fill="#fff"/>
      </g>
      <g id="Group_1842" data-name="Group 1842" transform="translate(0 2.839)">
        <g id="Group_1837" data-name="Group 1837" transform="translate(2.304)">
          <path id="Path_2387" data-name="Path 2387" d="M677.829,2922.215a.767.767,0,0,1-.514-1.336l1.374-1.238a.767.767,0,1,1,1.026,1.139l-1.374,1.238A.765.765,0,0,1,677.829,2922.215Z" transform="translate(-677.062 -2919.444)" fill="#fff"/>
        </g>
        <g id="Group_1838" data-name="Group 1838" transform="translate(1.611 3.156)">
          <path id="Path_2388" data-name="Path 2388" d="M677.037,2926.445a.767.767,0,0,1-.514-1.336l2.067-1.862a.767.767,0,0,1,1.026,1.139l-2.067,1.862A.767.767,0,0,1,677.037,2926.445Z" transform="translate(-676.27 -2923.05)" fill="#fff"/>
        </g>
        <g id="Group_1839" data-name="Group 1839" transform="translate(1.026 6.359)">
          <path id="Path_2389" data-name="Path 2389" d="M676.368,2930.634a.766.766,0,0,1-.514-1.336l2.652-2.39a.767.767,0,0,1,1.026,1.139l-2.652,2.389A.767.767,0,0,1,676.368,2930.634Z" transform="translate(-675.601 -2926.711)" fill="#fff"/>
        </g>
        <g id="Group_1840" data-name="Group 1840" transform="translate(0.494 9.587)">
          <path id="Path_2390" data-name="Path 2390" d="M675.76,2934.8a.767.767,0,0,1-.514-1.336l3.184-2.869a.767.767,0,1,1,1.026,1.139l-3.184,2.869A.764.764,0,0,1,675.76,2934.8Z" transform="translate(-674.993 -2930.399)" fill="#fff"/>
        </g>
        <g id="Group_1841" data-name="Group 1841" transform="translate(0 12.832)">
          <path id="Path_2391" data-name="Path 2391" d="M675.2,2938.955a.766.766,0,0,1-.514-1.336l3.678-3.314a.767.767,0,0,1,1.026,1.14l-3.678,3.313A.766.766,0,0,1,675.2,2938.955Z" transform="translate(-674.429 -2934.108)" fill="#fff"/>
        </g>
      </g>
      <g id="Group_1848" data-name="Group 1848" transform="translate(8.321 2.82)">
        <g id="Group_1843" data-name="Group 1843">
          <path id="Path_2392" data-name="Path 2392" d="M686.078,2922.194a.766.766,0,0,1-.513-.2l-1.374-1.239a.767.767,0,1,1,1.026-1.139l1.374,1.238a.766.766,0,0,1-.514,1.336Z" transform="translate(-683.938 -2919.422)" fill="#fff"/>
        </g>
        <g id="Group_1844" data-name="Group 1844" transform="translate(0 3.155)">
          <path id="Path_2393" data-name="Path 2393" d="M686.771,2926.423a.766.766,0,0,1-.513-.2l-2.067-1.862a.767.767,0,0,1,1.026-1.139l2.067,1.862a.766.766,0,0,1-.514,1.336Z" transform="translate(-683.938 -2923.028)" fill="#fff"/>
        </g>
        <g id="Group_1845" data-name="Group 1845" transform="translate(0 6.359)">
          <path id="Path_2394" data-name="Path 2394" d="M687.356,2930.612a.766.766,0,0,1-.513-.2l-2.652-2.39a.767.767,0,1,1,1.026-1.139l2.652,2.39a.767.767,0,0,1-.514,1.336Z" transform="translate(-683.938 -2926.689)" fill="#fff"/>
        </g>
        <g id="Group_1846" data-name="Group 1846" transform="translate(0 9.587)">
          <path id="Path_2395" data-name="Path 2395" d="M687.888,2934.78a.764.764,0,0,1-.513-.2l-3.184-2.868a.767.767,0,1,1,1.026-1.139l3.184,2.868a.766.766,0,0,1-.514,1.336Z" transform="translate(-683.938 -2930.378)" fill="#fff"/>
        </g>
        <g id="Group_1847" data-name="Group 1847" transform="translate(0 12.832)">
          <path id="Path_2396" data-name="Path 2396" d="M688.382,2938.933a.765.765,0,0,1-.513-.2l-3.678-3.314a.767.767,0,1,1,1.026-1.139l3.678,3.314a.767.767,0,0,1-.514,1.336Z" transform="translate(-683.938 -2934.086)" fill="#fff"/>
        </g>
      </g>
    </g>
    <g id="Group_1863" data-name="Group 1863" transform="translate(45.302 46.781)">
      <g id="Group_1850" data-name="Group 1850" transform="translate(6.003)">
        <path id="Path_2397" data-name="Path 2397" d="M715.432,2942.581a.767.767,0,0,1-.767-.767v-21.434a.767.767,0,1,1,1.533,0v21.434A.767.767,0,0,1,715.432,2942.581Z" transform="translate(-714.665 -2919.613)" fill="#fff"/>
      </g>
      <g id="Group_1856" data-name="Group 1856" transform="translate(0 2.84)">
        <g id="Group_1851" data-name="Group 1851" transform="translate(2.304)">
          <path id="Path_2398" data-name="Path 2398" d="M711.2,2925.63a.766.766,0,0,1-.514-1.336l1.375-1.238a.766.766,0,1,1,1.026,1.138l-1.374,1.238A.764.764,0,0,1,711.2,2925.63Z" transform="translate(-710.437 -2922.859)" fill="#fff"/>
        </g>
        <g id="Group_1852" data-name="Group 1852" transform="translate(1.611 3.155)">
          <path id="Path_2399" data-name="Path 2399" d="M710.413,2929.859a.766.766,0,0,1-.513-1.336l2.067-1.861a.766.766,0,1,1,1.026,1.138l-2.067,1.862A.76.76,0,0,1,710.413,2929.859Z" transform="translate(-709.646 -2926.464)" fill="#fff"/>
        </g>
        <g id="Group_1853" data-name="Group 1853" transform="translate(1.026 6.359)">
          <path id="Path_2400" data-name="Path 2400" d="M709.744,2934.048a.766.766,0,0,1-.513-1.336l2.652-2.389a.766.766,0,1,1,1.026,1.139l-2.652,2.39A.761.761,0,0,1,709.744,2934.048Z" transform="translate(-708.977 -2930.125)" fill="#fff"/>
        </g>
        <g id="Group_1854" data-name="Group 1854" transform="translate(0.494 9.587)">
          <path id="Path_2401" data-name="Path 2401" d="M709.136,2938.217a.767.767,0,0,1-.513-1.336l3.184-2.869a.767.767,0,1,1,1.026,1.139l-3.184,2.868A.762.762,0,0,1,709.136,2938.217Z" transform="translate(-708.369 -2933.814)" fill="#fff"/>
        </g>
        <g id="Group_1855" data-name="Group 1855" transform="translate(0 12.832)">
          <path id="Path_2402" data-name="Path 2402" d="M708.572,2942.369a.767.767,0,0,1-.513-1.336l3.678-3.313a.766.766,0,1,1,1.026,1.138l-3.678,3.314A.761.761,0,0,1,708.572,2942.369Z" transform="translate(-707.805 -2937.522)" fill="#fff"/>
        </g>
      </g>
      <g id="Group_1862" data-name="Group 1862" transform="translate(8.32 2.821)">
        <g id="Group_1857" data-name="Group 1857">
          <path id="Path_2403" data-name="Path 2403" d="M719.454,2925.608a.762.762,0,0,1-.513-.2l-1.375-1.238a.766.766,0,1,1,1.026-1.139l1.375,1.238a.766.766,0,0,1-.513,1.336Z" transform="translate(-717.313 -2922.836)" fill="#fff"/>
        </g>
        <g id="Group_1858" data-name="Group 1858" transform="translate(0 3.155)">
          <path id="Path_2404" data-name="Path 2404" d="M720.146,2929.838a.762.762,0,0,1-.513-.2l-2.067-1.861a.766.766,0,1,1,1.026-1.139l2.067,1.862a.766.766,0,0,1-.513,1.336Z" transform="translate(-717.313 -2926.442)" fill="#fff"/>
        </g>
        <g id="Group_1859" data-name="Group 1859" transform="translate(0 6.359)">
          <path id="Path_2405" data-name="Path 2405" d="M720.732,2934.027a.763.763,0,0,1-.513-.2l-2.652-2.389a.766.766,0,1,1,1.026-1.139l2.652,2.39a.767.767,0,0,1-.513,1.336Z" transform="translate(-717.313 -2930.103)" fill="#fff"/>
        </g>
        <g id="Group_1860" data-name="Group 1860" transform="translate(0 9.587)">
          <path id="Path_2406" data-name="Path 2406" d="M721.265,2938.195a.763.763,0,0,1-.514-.2l-3.184-2.869a.766.766,0,1,1,1.026-1.139l3.185,2.869a.767.767,0,0,1-.513,1.336Z" transform="translate(-717.313 -2933.792)" fill="#fff"/>
        </g>
        <g id="Group_1861" data-name="Group 1861" transform="translate(0 12.832)">
          <path id="Path_2407" data-name="Path 2407" d="M721.758,2942.347a.761.761,0,0,1-.513-.2l-3.679-3.313a.766.766,0,0,1,1.026-1.139l3.679,3.313a.766.766,0,0,1-.513,1.336Z" transform="translate(-717.313 -2937.501)" fill="#fff"/>
        </g>
      </g>
    </g>
    <g id="Group_1877" data-name="Group 1877" transform="translate(29.973 40.805)">
      <g id="Group_1864" data-name="Group 1864" transform="translate(6.003)">
        <path id="Path_2408" data-name="Path 2408" d="M697.915,2935.752a.767.767,0,0,1-.767-.766v-21.435a.767.767,0,0,1,1.533,0v21.435A.766.766,0,0,1,697.915,2935.752Z" transform="translate(-697.148 -2912.784)" fill="#fff"/>
      </g>
      <g id="Group_1870" data-name="Group 1870" transform="translate(0 2.84)">
        <g id="Group_1865" data-name="Group 1865" transform="translate(2.304)">
          <path id="Path_2409" data-name="Path 2409" d="M693.688,2918.8a.766.766,0,0,1-.514-1.336l1.375-1.238a.767.767,0,0,1,1.026,1.139L694.2,2918.6A.763.763,0,0,1,693.688,2918.8Z" transform="translate(-692.921 -2916.029)" fill="#fff"/>
        </g>
        <g id="Group_1866" data-name="Group 1866" transform="translate(1.611 3.155)">
          <path id="Path_2410" data-name="Path 2410" d="M692.9,2923.031a.766.766,0,0,1-.514-1.336l2.067-1.862a.767.767,0,0,1,1.026,1.139l-2.067,1.862A.765.765,0,0,1,692.9,2923.031Z" transform="translate(-692.129 -2919.635)" fill="#fff"/>
        </g>
        <g id="Group_1867" data-name="Group 1867" transform="translate(1.026 6.359)">
          <path id="Path_2411" data-name="Path 2411" d="M692.227,2927.219a.767.767,0,0,1-.514-1.336l2.652-2.39a.767.767,0,0,1,1.026,1.139l-2.652,2.39A.764.764,0,0,1,692.227,2927.219Z" transform="translate(-691.46 -2923.296)" fill="#fff"/>
        </g>
        <g id="Group_1868" data-name="Group 1868" transform="translate(0.494 9.587)">
          <path id="Path_2412" data-name="Path 2412" d="M691.619,2931.386a.766.766,0,0,1-.514-1.336l3.185-2.869a.767.767,0,0,1,1.026,1.139l-3.185,2.868A.762.762,0,0,1,691.619,2931.386Z" transform="translate(-690.852 -2926.985)" fill="#fff"/>
        </g>
        <g id="Group_1869" data-name="Group 1869" transform="translate(0 12.832)">
          <path id="Path_2413" data-name="Path 2413" d="M691.055,2935.54a.766.766,0,0,1-.514-1.336l3.679-3.313a.766.766,0,1,1,1.026,1.138l-3.679,3.314A.764.764,0,0,1,691.055,2935.54Z" transform="translate(-690.288 -2930.693)" fill="#fff"/>
        </g>
      </g>
      <g id="Group_1876" data-name="Group 1876" transform="translate(8.32 2.821)">
        <g id="Group_1871" data-name="Group 1871">
          <path id="Path_2414" data-name="Path 2414" d="M701.937,2918.779a.761.761,0,0,1-.513-.2l-1.375-1.238a.766.766,0,1,1,1.026-1.138l1.375,1.238a.767.767,0,0,1-.513,1.336Z" transform="translate(-699.796 -2916.007)" fill="#fff"/>
        </g>
        <g id="Group_1872" data-name="Group 1872" transform="translate(0 3.155)">
          <path id="Path_2415" data-name="Path 2415" d="M702.629,2923.008a.762.762,0,0,1-.513-.2l-2.067-1.862a.766.766,0,1,1,1.026-1.138l2.067,1.861a.766.766,0,0,1-.513,1.336Z" transform="translate(-699.796 -2919.613)" fill="#fff"/>
        </g>
        <g id="Group_1873" data-name="Group 1873" transform="translate(0 6.359)">
          <path id="Path_2416" data-name="Path 2416" d="M703.215,2927.2a.761.761,0,0,1-.513-.2l-2.652-2.39a.766.766,0,1,1,1.026-1.138l2.652,2.389a.766.766,0,0,1-.513,1.336Z" transform="translate(-699.796 -2923.274)" fill="#fff"/>
        </g>
        <g id="Group_1874" data-name="Group 1874" transform="translate(0 9.587)">
          <path id="Path_2417" data-name="Path 2417" d="M703.748,2931.365a.764.764,0,0,1-.514-.2l-3.184-2.869a.766.766,0,0,1,1.026-1.139l3.185,2.87a.766.766,0,0,1-.513,1.336Z" transform="translate(-699.796 -2926.963)" fill="#fff"/>
        </g>
        <g id="Group_1875" data-name="Group 1875" transform="translate(0 12.832)">
          <path id="Path_2418" data-name="Path 2418" d="M704.24,2935.518a.763.763,0,0,1-.513-.2l-3.678-3.314a.766.766,0,1,1,1.026-1.138l3.678,3.313a.766.766,0,0,1-.513,1.336Z" transform="translate(-699.796 -2930.671)" fill="#fff"/>
        </g>
      </g>
    </g>
    <g id="Group_1891" data-name="Group 1891" transform="translate(61.143 40.805)">
      <g id="Group_1878" data-name="Group 1878" transform="translate(6.004)">
        <path id="Path_2419" data-name="Path 2419" d="M733.535,2935.752a.766.766,0,0,1-.767-.766v-21.435a.767.767,0,0,1,1.533,0v21.435A.766.766,0,0,1,733.535,2935.752Z" transform="translate(-732.768 -2912.784)" fill="#fff"/>
      </g>
      <g id="Group_1884" data-name="Group 1884" transform="translate(0 2.84)">
        <g id="Group_1879" data-name="Group 1879" transform="translate(2.304)">
          <path id="Path_2420" data-name="Path 2420" d="M729.307,2918.8a.766.766,0,0,1-.513-1.336l1.374-1.238a.766.766,0,1,1,1.026,1.139l-1.374,1.238A.761.761,0,0,1,729.307,2918.8Z" transform="translate(-728.54 -2916.029)" fill="#fff"/>
        </g>
        <g id="Group_1880" data-name="Group 1880" transform="translate(1.611 3.155)">
          <path id="Path_2421" data-name="Path 2421" d="M728.515,2923.031a.766.766,0,0,1-.513-1.336l2.068-1.862a.767.767,0,1,1,1.026,1.139l-2.068,1.862A.762.762,0,0,1,728.515,2923.031Z" transform="translate(-727.749 -2919.635)" fill="#fff"/>
        </g>
        <g id="Group_1881" data-name="Group 1881" transform="translate(1.026 6.359)">
          <path id="Path_2422" data-name="Path 2422" d="M727.846,2927.219a.767.767,0,0,1-.513-1.336l2.653-2.39a.766.766,0,1,1,1.026,1.139l-2.653,2.39A.76.76,0,0,1,727.846,2927.219Z" transform="translate(-727.08 -2923.296)" fill="#fff"/>
        </g>
        <g id="Group_1882" data-name="Group 1882" transform="translate(0.494 9.587)">
          <path id="Path_2423" data-name="Path 2423" d="M727.239,2931.386a.766.766,0,0,1-.513-1.336l3.184-2.869a.766.766,0,1,1,1.026,1.139l-3.184,2.868A.763.763,0,0,1,727.239,2931.386Z" transform="translate(-726.472 -2926.984)" fill="#fff"/>
        </g>
        <g id="Group_1883" data-name="Group 1883" transform="translate(0 12.832)">
          <path id="Path_2424" data-name="Path 2424" d="M726.674,2935.54a.766.766,0,0,1-.513-1.336l3.679-3.314a.767.767,0,1,1,1.026,1.14l-3.679,3.313A.762.762,0,0,1,726.674,2935.54Z" transform="translate(-725.907 -2930.693)" fill="#fff"/>
        </g>
      </g>
      <g id="Group_1890" data-name="Group 1890" transform="translate(8.321 2.821)">
        <g id="Group_1885" data-name="Group 1885">
          <path id="Path_2425" data-name="Path 2425" d="M737.557,2918.779a.761.761,0,0,1-.513-.2l-1.375-1.238a.766.766,0,1,1,1.026-1.138l1.375,1.238a.766.766,0,0,1-.513,1.336Z" transform="translate(-735.416 -2916.007)" fill="#fff"/>
        </g>
        <g id="Group_1886" data-name="Group 1886" transform="translate(0 3.155)">
          <path id="Path_2426" data-name="Path 2426" d="M738.25,2923.008a.762.762,0,0,1-.513-.2l-2.067-1.862a.766.766,0,1,1,1.026-1.138l2.067,1.861a.766.766,0,0,1-.513,1.336Z" transform="translate(-735.416 -2919.613)" fill="#fff"/>
        </g>
        <g id="Group_1887" data-name="Group 1887" transform="translate(0 6.359)">
          <path id="Path_2427" data-name="Path 2427" d="M738.835,2927.2a.761.761,0,0,1-.513-.2l-2.652-2.39a.766.766,0,1,1,1.026-1.138l2.652,2.389a.766.766,0,0,1-.513,1.336Z" transform="translate(-735.416 -2923.274)" fill="#fff"/>
        </g>
        <g id="Group_1888" data-name="Group 1888" transform="translate(0 9.587)">
          <path id="Path_2428" data-name="Path 2428" d="M739.367,2931.365a.76.76,0,0,1-.513-.2l-3.184-2.869a.767.767,0,1,1,1.026-1.139l3.184,2.87a.766.766,0,0,1-.513,1.336Z" transform="translate(-735.416 -2926.963)" fill="#fff"/>
        </g>
        <g id="Group_1889" data-name="Group 1889" transform="translate(0 12.832)">
          <path id="Path_2429" data-name="Path 2429" d="M739.861,2935.518a.764.764,0,0,1-.513-.2l-3.678-3.314a.766.766,0,1,1,1.026-1.138l3.678,3.313a.766.766,0,0,1-.513,1.336Z" transform="translate(-735.416 -2930.671)" fill="#fff"/>
        </g>
      </g>
    </g>
  </g>
</svg>
